<svg width="492" height="556" version="1.1" xmlns="http://www.w3.org/2000/svg" desc="Created with imagetracer.js version 1.2.6" ><path fill="rgb(190,190,200)" stroke="rgb(190,190,200)" stroke-width="1" opacity="0.9764705882352941" d="M 0.5 0 L 492 0 L 492 556 L 0 555.5 L 491 555 L 491 1 L 0.5 1 L 0.5 0 Z " /><path fill="rgb(190,190,200)" stroke="rgb(190,190,200)" stroke-width="1" opacity="0.9764705882352941" d="M 54.5 14 L 69.5 14 L 80 21.5 L 85 29.5 L 85 43.5 L 77.5 54 L 69.5 59 L 64 59 L 64 77 L 96.5 77 L 97 80 L 64 80 L 64 129 Q 66.7 127.9 66 130.5 L 69 132 L 77 142.5 L 79 148 L 85 151.5 Q 84.3 153.8 86.5 153 L 98 167.5 L 95 169 Q 96.1 166.3 93.5 167 Q 83.4 159.8 79 148 L 74 146 L 72.5 143 Q 70.3 143.8 71 141.5 L 68 140 L 68 137.5 L 61.5 130 L 56 140 L 53 141.5 L 51 144.5 L 48 146 Q 49.1 148.7 46.5 148 L 45 151.5 L 33.5 164 L 29 167.5 Q 29.8 169.8 27.5 169 Q 24.5 167.5 27.5 166 Q 30.5 166.9 29 162.5 L 37.5 153 Q 39.8 153.8 39 151.5 L 42 150 L 42 148 Q 44.7 149.1 44 146.5 L 55 132 L 60 130 L 60 80 L 27.5 80 L 27 77 L 60 77 L 60 59 L 54.5 59 L 45 52.5 L 39 43.5 L 39 29.5 L 46.5 19 L 54.5 14 Z M 56 18 L 56 20 L 51 20 L 51 22 L 48 23 L 46 27 L 46 30 L 43 32 L 43 42 L 45 42 Q 47 43 46 47 L 53 53 Q 57 52 56 55 L 68 55 L 68 53 L 73 53 L 73 52 L 76 50 L 78 47 L 78 44 L 81 42 L 81 32 L 80 30 L 78 30 L 78 25 Q 75 26 76 23 L 73 22 L 73 20 L 68 20 L 68 18 L 56 18 Z " /><path fill="rgb(190,190,200)" stroke="rgb(190,190,200)" stroke-width="1" opacity="0.9764705882352941" d="M 143.5 130 L 289.5 130 L 296 134.5 L 298 138.5 L 298 207.5 L 293 214 L 216.5 214 L 214.5 215 L 213.5 214 L 141.5 214 L 140 212.5 Q 140.8 210.3 138.5 211 L 135 204.5 L 135 138.5 L 139.5 132 L 143.5 130 Z M 141 136 L 141 210 L 292 210 L 292 136 L 141 136 Z " /><path fill="rgb(190,190,200)" stroke="rgb(190,190,200)" stroke-width="1" opacity="0.9764705882352941" d="M 328.5 130 L 468.5 130 L 475 133.5 L 478 139.5 L 478 206.5 L 475 211 L 473 211 L 472.5 214 L 398.5 214 L 396.5 215 L 395.5 214 L 326.5 214 L 325 212.5 Q 325.7 209.5 322 211 L 322 208.5 L 319 203.5 L 320 202.5 L 320 141.5 L 319 139.5 L 323.5 132 Q 327.8 132.8 328.5 130 Z M 326 136 L 325 140 L 325 205 L 326 206 L 325 210 L 472 210 L 472 136 L 326 136 Z " /><path fill="rgb(190,190,200)" stroke="rgb(190,190,200)" stroke-width="1" opacity="0.9764705882352941" d="M 166.5 158 L 173.5 158 L 181 163.5 L 182 170 Q 174.8 171.5 173 166.5 Q 173.6 163.8 167.5 165 Q 162.4 167.4 163 175.5 L 165 181 L 171.5 182 L 174 181 L 176 176 Q 181.4 174.5 183 177.5 L 180 186 Q 176 189.8 167.5 190 L 160 186.5 L 158 183.5 L 155 177.5 L 155 169.5 L 158.5 163 Q 160.8 163.8 160 161.5 L 166.5 158 Z " /><path fill="rgb(190,190,200)" stroke="rgb(190,190,200)" stroke-width="1" opacity="0.9764705882352941" d="M 265.5 158 L 270 160 L 270 164.5 L 273 167.5 L 273 172.5 L 278 182.5 L 278 187.5 Q 277.3 189.8 273.5 189 L 271 188 L 269 181 L 261.5 181 L 260 182.5 Q 261 187 258.5 188 L 254.5 189 L 252 188 L 251.5 184 L 248.5 188 L 243.5 189 L 241.5 191 Q 239.3 187.5 234 188 L 234 184 L 232.5 184 L 229.5 188 L 221.5 190 L 216 188 L 215.5 186 L 214 189 L 205.5 188 Q 203.8 190.8 197.5 189 L 194 186.5 L 192 180.5 L 196 175.5 L 194 175 Q 192.3 168.9 195.5 167 Q 198.7 163.2 207.5 165 L 212 169.5 L 212 184 L 214 184 L 214 179 Q 216.7 180.1 216 177.5 Q 213.4 176.1 214 171.5 L 217.5 166 Q 220.7 163.7 227.5 165 L 231 168.5 L 232 173.5 L 229 175.5 L 231 176 Q 229.2 180.9 235.5 179 L 234 176.5 L 233 171.5 L 236.5 166 Q 239.7 163.7 246.5 165 L 249 166 L 252 173.5 L 249 175.5 Q 253.3 177.3 252.5 184 L 255 178.5 L 255 174.5 L 258 170.5 L 258 167.5 L 260 165.5 Q 259 161 261.5 160 L 265.5 158 Z M 266 170 L 264 173 L 266 173 L 266 170 Z M 203 172 Q 203 176 205 173 L 203 172 Z M 223 172 L 224 173 L 225 174 Q 226 171 223 172 Z M 242 172 L 244 174 Q 245 171 242 172 Z M 203 180 L 202 181 Q 199 180 200 183 L 205 182 Q 206 179 203 180 Z M 220 180 L 222 183 Q 226 184 225 181 L 220 180 Z M 239 180 L 239 182 L 242 183 Q 245 184 244 181 L 239 180 Z " /><path fill="rgb(190,190,200)" stroke="rgb(190,190,200)" stroke-width="1" opacity="0.9764705882352941" d="M 351.5 158 L 358.5 158 L 366 163.5 L 366.5 165 L 369.5 159 Q 374.3 158.3 375 161.5 L 375.5 173 Q 375.6 166.6 380.5 165 Q 391.8 162.8 394 169.5 L 394.5 184 L 396.5 179 Q 398.8 179.8 398 177.5 L 395 171.5 L 398 166 Q 401 164 408.5 165 L 413 168 L 413.5 173 L 418.5 165 Q 428.8 162.8 431 168.5 Q 432.5 175.5 429.5 175 L 429.5 176 Q 432.5 175.2 431 179 L 433 179 L 432 174.5 Q 434.3 173.2 433 168.5 Q 430.5 167 432 161.5 Q 435.1 156.6 444.5 158 Q 446.8 160.7 452.5 160 L 455 162.5 L 455 173.5 L 458 177.5 L 458 181.5 L 452.5 188 Q 446.6 190.6 436.5 189 L 433 188 L 432.5 184 L 431 188 L 420.5 190 L 414 185.5 L 413.5 184 L 411.5 188 L 402.5 190 Q 401.1 187.4 396.5 188 Q 395.2 190.2 390.5 189 L 387.5 188 Q 385.8 190.8 379.5 189 L 376 186.5 L 375.5 185 L 373.5 188 L 370.5 189 L 368 188 L 368 182.5 L 366.5 182 L 361.5 188 L 352.5 190 Q 345.1 188.9 342 183.5 Q 342.6 178.9 340 177.5 L 340 169.5 L 343.5 163 Q 345.8 163.8 345 161.5 L 351.5 158 Z M 352 165 L 348 172 L 349 181 L 357 182 L 362 176 L 368 176 L 368 170 L 362 170 L 357 165 L 352 165 Z M 440 165 L 441 168 Q 440 170 447 169 L 448 167 Q 446 163 440 165 Z M 385 172 Q 385 176 387 173 L 385 172 Z M 404 172 L 404 173 L 406 173 L 404 172 Z M 422 172 L 422 173 L 424 173 L 422 172 Z M 375 174 L 376 179 L 378 176 L 375 174 Z M 413 174 L 410 176 L 413 178 Q 412 181 416 179 L 414 176 Q 415 173 413 174 Z M 441 176 L 440 180 L 443 181 L 445 181 Q 452 183 450 178 Q 447 175 441 176 Z M 385 180 L 384 181 Q 381 180 382 183 L 387 182 Q 388 179 385 180 Z M 404 180 Q 401 182 404 183 Q 407 184 406 181 L 404 180 Z M 421 180 L 421 183 Q 426 185 425 181 L 421 180 Z " /><path fill="rgb(190,190,200)" stroke="rgb(190,190,200)" stroke-width="1" opacity="0.9764705882352941" d="M 185.5 159 Q 190 158 191 160.5 L 191 187.5 L 189.5 188 L 186.5 189 L 184 188 L 184 160.5 L 185.5 159 Z " /><path fill="rgb(190,190,200)" stroke="rgb(190,190,200)" stroke-width="1" opacity="0.9764705882352941" d="M 16.5 181 Q 21.9 179.1 21 182.5 L 22 183.5 L 22 201.5 L 23.5 203 L 28.5 204 L 31 203 L 32 196.5 L 32 182.5 L 33.5 181 Q 38 180.5 38 181.5 L 38 203.5 L 37 206 Q 34.3 204.9 35 207.5 L 33.5 209 L 24.5 210 L 20.5 209 L 16 204.5 L 15 202.5 L 15 182.5 L 16.5 181 Z " /><path fill="rgb(190,190,200)" stroke="rgb(190,190,200)" stroke-width="1" opacity="0.9764705882352941" d="M 45.5 187 Q 56.8 184.8 59 191.5 L 56.5 196 L 55 196.5 L 58 198.5 L 59 205.5 Q 56.4 210.9 47.5 210 L 42 206.5 L 41 202.5 L 42 200 L 45 199.5 L 41 193.5 L 45.5 187 Z M 50 192 Q 47 194 50 195 L 53 195 L 50 192 Z M 47 201 Q 47 206 52 205 Q 54 199 47 201 Z " /><path fill="rgb(190,190,200)" stroke="rgb(190,190,200)" stroke-width="1" opacity="0.9764705882352941" d="M 66.5 187 Q 77.8 184.8 80 191.5 L 81 198.5 Q 78.5 200 80 205.5 L 76.5 209 L 68.5 210 L 62 205.5 L 60 196.5 L 66.5 187 Z M 69 193 Q 68 197 73 195 Q 74 191 69 193 Z M 68 201 L 70 204 Q 74 205 75 202 L 68 201 Z " /><path fill="rgb(190,190,200)" stroke="rgb(190,190,200)" stroke-width="1" opacity="0.9764705882352941" d="M 84 187 L 94.5 187 L 96 188.5 L 95 193 Q 91.2 192 90 194.5 L 90 207.5 L 88.5 209 Q 84 209.5 84 208.5 L 84 187 Z " /><path fill="rgb(190,190,200)" stroke="rgb(190,190,200)" stroke-width="1" opacity="0.9764705882352941" d="M 59.5 215 L 63 217.5 L 63 226.5 L 61.5 228 L 58 226.5 L 58 216.5 L 59.5 215 Z " /><path fill="rgb(190,190,200)" stroke="rgb(190,190,200)" stroke-width="1" opacity="0.9764705882352941" d="M 214 216 L 219 217 L 219 226.5 L 217.5 228 L 214 226.5 L 214 216 Z " /><path fill="rgb(190,190,200)" stroke="rgb(190,190,200)" stroke-width="1" opacity="0.9764705882352941" d="M 397.5 216 L 401 217 L 401 226.5 L 399.5 228 L 396 226.5 L 396 217.5 L 397.5 216 Z " /><path fill="rgb(190,190,200)" stroke="rgb(190,190,200)" stroke-width="1" opacity="0.9764705882352941" d="M 59 241 L 63 242.5 L 63 253.5 L 59.5 254 L 58 252.5 L 58 243.5 L 59 241 Z " /><path fill="rgb(190,190,200)" stroke="rgb(190,190,200)" stroke-width="1" opacity="0.9764705882352941" d="M 215.5 241 L 219 242.5 L 219 252.5 L 217.5 254 L 214 252.5 L 214 242.5 L 215.5 241 Z " /><path fill="rgb(190,190,200)" stroke="rgb(190,190,200)" stroke-width="1" opacity="0.9764705882352941" d="M 397.5 241 L 401 242.5 L 401 252.5 L 399.5 254 L 396 252.5 L 396 242.5 L 397.5 241 Z " /><path fill="rgb(190,190,200)" stroke="rgb(190,190,200)" stroke-width="1" opacity="0.9764705882352941" d="M 88.5 265 Q 94.2 264.3 96.5 267 Q 97.8 263.8 103.5 265 L 106 266 L 109 271.5 L 109 283.5 Q 108 286 103.5 285 L 102 283.5 L 102 271 Q 98.2 269.5 99 272.5 L 98 273.5 L 98 285 L 92 285 L 92 272.5 L 89.5 271 L 88 272.5 L 88 283.5 L 86.5 285 Q 81.1 285.6 81 284.5 L 81 267.5 L 82.5 266 Q 87.3 267.2 88.5 265 Z " /><path fill="rgb(190,190,200)" stroke="rgb(190,190,200)" stroke-width="1" opacity="0.9764705882352941" d="M 118.5 265 Q 126.1 263.9 128 268.5 L 127 275.5 L 130 280.5 L 127 285 L 117.5 286 L 113 282.5 Q 112 277.5 115 276.5 Q 111.3 274.6 113 268 L 118.5 265 Z M 120 271 L 120 273 L 124 273 L 120 271 Z M 117 277 L 120 281 Q 124 282 123 280 L 117 277 Z " /><path fill="rgb(190,190,200)" stroke="rgb(190,190,200)" stroke-width="1" opacity="0.9764705882352941" d="M 139.5 265 L 151 266 L 151 286.5 L 146.5 292 L 137.5 293 L 134 291 L 135 283.5 Q 131.1 280.9 132 273.5 L 134 268 L 139.5 265 Z M 142 271 L 140 272 Q 137 273 138 278 L 143 281 Q 146 279 145 274 L 142 271 Z M 138 285 L 138 287 L 142 288 L 144 287 L 144 285 L 138 285 Z " /><path fill="rgb(190,190,200)" stroke="rgb(190,190,200)" stroke-width="1" opacity="0.9764705882352941" d="M 60.5 267 L 63 268 L 63 279.5 L 61.5 280 Q 59.7 282.8 58 278.5 L 58 269.5 L 60.5 267 Z " /><path fill="rgb(190,190,200)" stroke="rgb(190,190,200)" stroke-width="1" opacity="0.9764705882352941" d="M 216.5 267 L 219 268 L 219 279.5 L 217.5 280 L 215.5 280 L 214 279.5 L 214 268 L 216.5 267 Z " /><path fill="rgb(190,190,200)" stroke="rgb(190,190,200)" stroke-width="1" opacity="0.9764705882352941" d="M 398.5 267 L 401 268 L 401 279.5 L 399.5 280 Q 397.7 282.8 396 278.5 L 396 269.5 L 398.5 267 Z " /><path fill="rgb(190,190,200)" stroke="rgb(190,190,200)" stroke-width="1" opacity="0.9764705882352941" d="M 172.5 284 L 182.5 289 L 187.5 289 L 195.5 294 L 231.5 294 L 233 295.5 L 233 323.5 L 231.5 324 L 229.5 325 L 228.5 324 L 220.5 324 L 219 325.5 Q 220.5 331.5 217.5 333 L 214 330.5 Q 215.3 325.3 212.5 324 L 200 324 L 200 298.5 L 196.5 301 L 193.5 301 Q 194.5 304 189.5 303 L 177.5 309 L 171.5 309 L 170 305.5 L 174 300 L 64.5 300 L 63 301.5 Q 64 306 61.5 307 Q 58.2 308.1 59 305.5 L 58 304.5 L 58 296.5 L 59 294 L 138.5 294 L 143.5 295 L 144.5 294 L 175 293.5 L 171 291 Q 169.5 285.6 172.5 284 Z M 208 300 L 206 302 L 206 318 L 227 318 L 227 302 L 226 300 L 208 300 Z " /><path fill="rgb(190,190,200)" stroke="rgb(190,190,200)" stroke-width="1" opacity="0.9764705882352941" d="M 397.5 294 L 401 295.5 L 401 305.5 L 399.5 307 L 396 305.5 L 396 295.5 L 397.5 294 Z " /><path fill="rgb(190,190,200)" stroke="rgb(190,190,200)" stroke-width="1" opacity="0.9764705882352941" d="M 59.5 320 L 63 321.5 L 63 332.5 L 61.5 333 L 58 330.5 L 58 321.5 L 59.5 320 Z " /><path fill="rgb(190,190,200)" stroke="rgb(190,190,200)" stroke-width="1" opacity="0.9764705882352941" d="M 397.5 320 L 401 321.5 L 401 331.5 L 399.5 333 L 396 330.5 L 396 321.5 L 397.5 320 Z " /><path fill="rgb(190,190,200)" stroke="rgb(190,190,200)" stroke-width="1" opacity="0.9764705882352941" d="M 142.5 339 L 287.5 339 L 293 340 Q 291.9 343.3 296 342 L 296 346.5 L 298 348.5 L 298 414.5 L 296 416.5 Q 297 421 294.5 422 L 291.5 424 L 141.5 424 L 137 420.5 Q 137.6 415.9 135 414.5 L 135 348.5 Q 138.2 347.1 137 342 L 142.5 339 Z M 145 343 L 143 346 L 140 348 L 141 349 L 141 418 L 144 420 L 289 420 L 292 418 L 292 347 L 290 345 L 290 343 L 145 343 Z " /><path fill="rgb(190,190,200)" stroke="rgb(190,190,200)" stroke-width="1" opacity="0.9764705882352941" d="M 327.5 339 L 467.5 339 L 471.5 340 L 476 343.5 Q 475 348.5 478 349.5 L 478 414.5 L 475 417.5 L 476 418.5 L 473.5 422 L 470.5 424 L 326.5 424 L 321 419.5 Q 321.6 414.9 319 413.5 L 320 412.5 L 320 350.5 L 319 349.5 L 322 346.5 Q 320.1 341.1 323.5 342 L 327.5 339 Z M 328 343 L 328 345 L 325 346 L 325 415 L 329 420 L 469 420 L 469 418 L 471 418 L 472 417 L 472 347 L 469 343 L 328 343 Z " /><path fill="rgb(190,190,200)" stroke="rgb(190,190,200)" stroke-width="1" opacity="0.9764705882352941" d="M 16.5 349 Q 21.9 347.1 21 350.5 L 22 351.5 L 22 369.5 L 23.5 371 L 28.5 372 L 31 371 L 32 365.5 L 32 350.5 L 33.5 349 Q 38 348.5 38 349.5 L 38 371.5 L 37 374 Q 34.3 372.9 35 375.5 Q 31.8 378.8 24.5 378 L 20.5 377 L 16 372.5 L 15 370.5 L 15 350.5 L 16.5 349 Z " /><path fill="rgb(190,190,200)" stroke="rgb(190,190,200)" stroke-width="1" opacity="0.9764705882352941" d="M 45.5 355 Q 56.8 352.8 59 359.5 L 56.5 364 L 55 364.5 L 58 366 Q 59.6 368.1 59 373.5 Q 56.4 378.9 47.5 378 L 42 374.5 L 41 370.5 L 42 368 L 45 367.5 L 41 361.5 L 45.5 355 Z M 50 360 Q 47 362 50 363 L 53 363 L 50 360 Z M 47 369 Q 47 374 52 373 Q 54 367 47 369 Z " /><path fill="rgb(190,190,200)" stroke="rgb(190,190,200)" stroke-width="1" opacity="0.9764705882352941" d="M 66.5 355 Q 77.8 352.8 80 359.5 L 81 366.5 Q 78.5 368 80 373.5 L 76.5 377 L 68.5 378 L 62 373.5 L 60 364.5 L 66.5 355 Z M 69 361 Q 68 365 73 363 Q 74 359 69 361 Z M 68 369 L 70 372 Q 74 373 75 370 L 68 369 Z " /><path fill="rgb(190,190,200)" stroke="rgb(190,190,200)" stroke-width="1" opacity="0.9764705882352941" d="M 84 355 L 94.5 355 L 96 356.5 L 95 361 Q 91.2 360 90 362.5 L 90 375.5 L 88.5 377 Q 84 377.5 84 376.5 L 84 355 Z " /><path fill="rgb(190,190,200)" stroke="rgb(190,190,200)" stroke-width="1" opacity="0.9764705882352941" d="M 166.5 365 L 173.5 365 L 181 370.5 L 182 377 L 177.5 378 L 173 375 L 171.5 372 Q 166 371 165 374.5 L 163 382.5 L 165 389 L 169.5 390 L 175 386.5 L 176 383 L 183 384 L 180 393 Q 177.3 391.9 178 394.5 L 169.5 398 L 162.5 396 L 157 390.5 Q 157.6 385.9 155 384.5 L 155 376.5 L 161.5 368 L 166.5 365 Z " /><path fill="rgb(190,190,200)" stroke="rgb(190,190,200)" stroke-width="1" opacity="0.9764705882352941" d="M 351.5 365 L 357.5 365 Q 359.5 368.2 364 368 L 366.5 372 Q 369.9 372.9 368 367.5 Q 368.8 365.3 372.5 366 L 375 368.5 L 375.5 380 Q 375.4 374.4 379.5 373 L 390.5 373 L 392 374.5 L 392 376 L 394 376.5 L 394 390.5 L 395 390.5 L 396 386 L 398 385.5 L 395 381.5 L 395 378.5 L 398 373 L 409.5 373 L 413 376.5 L 413.5 380 L 417.5 373 L 428.5 373 L 429 374.5 Q 432.3 375.8 431 381.5 L 430 383.5 L 432.5 387 L 433 384.5 L 432 381.5 L 433 376.5 Q 430.5 375 432 369.5 L 435.5 366 L 446.5 366 L 455 369.5 L 455 381.5 Q 459 382.5 458 388.5 L 451.5 396 L 434.5 396 L 433 394.5 L 432.5 391 L 429.5 396 L 425.5 396 L 421.5 398 Q 420.3 395 416 396 L 413.5 392 L 412 396 Q 406.5 395.2 403.5 398 L 397.5 395 L 396.5 396 Q 387 394.5 381.5 397 L 377 396 L 375.5 393 L 373.5 396 Q 365.3 398.8 368 390.5 L 366 389.5 L 365 393 L 362 394.5 Q 362.9 397.9 357.5 396 L 353.5 398 L 345 394.5 L 340 385.5 L 340 376.5 L 343.5 370 L 346.5 368 L 351.5 365 Z M 353 372 L 349 376 L 348 380 L 349 388 L 355 390 L 358 389 L 360 385 L 362 383 L 368 383 Q 369 378 367 377 L 364 378 L 362 377 Q 359 378 360 375 L 358 375 L 358 374 Q 357 371 353 372 Z M 442 372 L 440 374 L 443 377 L 445 376 Q 450 378 448 373 L 442 372 Z M 386 379 L 383 381 L 387 381 L 386 379 Z M 403 379 L 403 381 L 406 381 L 403 379 Z M 421 379 L 421 381 L 424 381 L 421 379 Z M 376 381 L 376 386 L 378 383 L 376 381 Z M 414 381 L 411 382 Q 410 385 413 384 L 413 387 L 416 386 L 414 381 Z M 443 383 L 441 387 Q 439 388 442 389 Q 447 391 449 388 Q 452 389 450 385 L 443 383 Z M 382 388 L 384 391 L 387 389 L 382 388 Z M 403 388 L 406 391 Q 408 387 403 388 Z M 421 388 L 423 391 L 425 390 L 421 388 Z " /><path fill="rgb(190,190,200)" stroke="rgb(190,190,200)" stroke-width="1" opacity="0.9764705882352941" d="M 186.5 366 Q 190.3 365.3 191 367.5 L 191 395.5 L 190.5 396 L 184 396 L 184 367.5 L 185.5 367 L 186.5 366 Z " /><path fill="rgb(190,190,200)" stroke="rgb(190,190,200)" stroke-width="1" opacity="0.9764705882352941" d="M 264.5 366 L 270 368.5 Q 269.4 374.1 273 375.5 L 273 381 Q 276 379.8 275 383.5 L 278 389.5 L 278 396 L 271 396 L 271 392.5 Q 268.3 391.4 269 388 Q 261.9 386.2 260 390.5 Q 261 395 258.5 396 Q 253.3 397.3 252 394.5 L 251.5 391 L 249 396 L 244.5 396 L 240.5 398 L 234 394.5 Q 235.5 390.1 232.5 391 L 230 396 Q 224.8 395 222.5 398 Q 220.5 395.2 216 396 Q 217 393 214 394 L 213.5 396 L 202.5 396 L 198.5 397 L 194 394.5 L 192 387.5 L 195 382.5 Q 192.8 381.3 194 376.5 L 197.5 373 L 209 373 L 210.5 376 L 212 376.5 L 212 390.5 L 214 391 L 213 388.5 L 214 386 Q 216.7 387.1 216 384.5 L 214 379.5 L 217.5 373 L 228.5 373 L 231 375.5 Q 230.3 379.3 232.5 380 L 236.5 373 L 247.5 373 L 249 374.5 L 251 377.5 L 252 380.5 L 249 382 L 252 386.5 L 252.5 391 L 261 367 L 264.5 366 Z M 266 378 L 264 380 Q 263 382 266 381 L 266 378 Z M 203 379 L 202 381 L 205 381 L 203 379 Z M 241 379 L 241 381 L 244 381 L 241 379 Z M 223 380 L 223 381 L 226 381 L 223 380 Z M 233 381 L 230 382 L 231 386 L 236 386 L 234 385 L 233 381 Z M 200 388 L 202 391 L 205 389 L 200 388 Z M 221 388 Q 220 392 225 391 Q 227 386 221 388 Z M 240 388 Q 239 392 244 391 Q 246 386 240 388 Z " /><path fill="rgb(190,190,200)" stroke="rgb(190,190,200)" stroke-width="1" opacity="0.9764705882352941" d="M 57.5 384 L 66.5 384 L 68.5 386 L 74 387 L 74 389 Q 77.8 387.5 77 390.5 L 85 400.5 L 85 414.5 L 78.5 424 Q 76.3 423.3 77 425.5 Q 75.8 428 72 427 Q 73.1 429.7 70.5 429 L 66.5 430 Q 65.3 427.8 64 430.5 L 64 447 L 96.5 447 L 97 450 L 93.5 451 L 67.5 451 L 65.5 450 L 64 451.5 L 64 498.5 L 74.5 512 L 77 513.5 Q 76.3 515.8 78.5 515 L 80 518 Q 82.7 516.9 82 519.5 L 85 521 L 85 523 Q 87.7 521.9 87 524.5 L 95.5 536 Q 99.3 534.8 98 538.5 L 95.5 540 L 93 539 Q 93.8 535.2 90.5 534 L 89 534 L 89 532 Q 86.3 533.1 87 530.5 Q 78.3 525.7 76 516 L 73 514.5 L 70.5 511 L 68 509.5 L 68 508 L 66 508 Q 67.1 505.3 64.5 506 L 63 503 Q 60.3 501.9 61 504.5 L 56 508 L 54.5 511 L 53 511 L 53 513 Q 50.3 511.9 51 514.5 L 48 516 L 48 518.5 L 40 529 L 35 531 Q 36.5 534.8 33.5 534 L 30.5 539 Q 26.1 540.5 27 537.5 L 32.5 531 Q 35.1 531.8 34 528.5 L 35 526 L 38 524.5 L 39 521 L 42 519.5 L 44 516.5 L 47 515 Q 45.9 512.3 48.5 513 L 50 509.5 L 60 498.5 L 60 451.5 L 57.5 450 L 56.5 451 L 30.5 451 L 27 450 L 27.5 447 L 60 447 L 60 430.5 Q 58.8 427.8 57.5 430 L 52 429 Q 53.3 425.7 48.5 427 L 47 424 L 44 422.5 L 39 414.5 L 39 400.5 L 47 389 L 50 389 Q 48.9 386.3 51.5 387 L 57.5 384 Z M 61 388 L 59 390 L 50 393 L 43 404 Q 41 413 46 415 Q 45 419 48 418 L 52 423 Q 55 422 54 425 L 70 425 L 70 423 Q 75 424 76 420 Q 75 417 78 418 L 78 415 L 81 413 L 81 403 L 76 395 L 69 390 L 61 388 Z " /><path fill="rgb(254,254,254)" stroke="rgb(254,254,254)" stroke-width="1" opacity="1" d="M 53.5 13 L 71.5 13 L 72 14.5 L 72.5 16 L 69.5 14 L 54.5 14 L 51.5 16 L 53.5 13 Z " /><path fill="rgb(254,254,254)" stroke="rgb(254,254,254)" stroke-width="1" opacity="1" d="M 48.5 16 L 50 16.5 L 44 21.5 L 39 29.5 L 39 43.5 L 46.5 54 L 50 56.5 L 48.5 57 L 44 53.5 L 42.5 51 L 41 51 L 41 46 L 38 45.5 L 38 27 L 41 27 L 41 22 L 42.5 22 L 45.5 18 L 48.5 16 Z " /><path fill="rgb(254,254,254)" stroke="rgb(254,254,254)" stroke-width="1" opacity="1" d="M 74.5 16 L 77 16 Q 75.9 18.7 78.5 18 L 81.5 22 Q 84.5 21.1 83 25.5 L 82 25.5 L 77.5 19 L 74.5 16 Z " /><path fill="rgb(254,254,254)" stroke="rgb(254,254,254)" stroke-width="1" opacity="1" d="M 56 18 L 67.5 18 L 68 20 L 73 20 L 73 21.5 L 76 23 Q 75 26 78 25 L 78 30 L 79.5 30 L 81 31.5 L 81 42 L 78 43.5 L 78 46.5 L 76 50 L 73 51.5 L 73 53 L 68 53 L 67.5 55 L 56 55 Q 57.3 51.7 52.5 53 L 46 46.5 Q 46.8 42.8 44.5 42 L 43 41.5 L 43 31.5 L 46 30 L 46 26.5 L 48 23 L 51 21.5 L 51 20 L 56 20 L 56 18 Z " /><path fill="rgb(254,254,254)" stroke="rgb(254,254,254)" stroke-width="1" opacity="1" d="M 83.5 27 L 86 27.5 L 86 46 L 83 45.5 L 85 43.5 L 85 29.5 L 83.5 27 Z " /><path fill="rgb(254,254,254)" stroke="rgb(254,254,254)" stroke-width="1" opacity="1" d="M 82.5 47 L 83 51 L 80 52.5 L 78.5 55 L 74.5 57 L 76.5 54 L 80 51.5 L 82.5 47 Z " /><path fill="rgb(254,254,254)" stroke="rgb(254,254,254)" stroke-width="1" opacity="1" d="M 52.5 57 Q 54.2 60.3 60 59.5 L 53.5 60 L 52.5 57 Z " /><path fill="rgb(254,254,254)" stroke="rgb(254,254,254)" stroke-width="1" opacity="1" d="M 71.5 57 L 72 60 L 64 59.5 Q 69.8 60.3 71.5 57 Z " /><path fill="rgb(254,254,254)" stroke="rgb(254,254,254)" stroke-width="1" opacity="1" d="M 59.5 62 L 60 73.5 L 59 73.5 L 59.5 62 Z " /><path fill="rgb(254,254,254)" stroke="rgb(254,254,254)" stroke-width="1" opacity="1" d="M 64.5 62 L 65 73.5 L 64 73.5 L 64.5 62 Z " /><path fill="rgb(254,254,254)" stroke="rgb(254,254,254)" stroke-width="1" opacity="1" d="M 25 76 L 60 76.5 L 27 77 L 27.5 80 L 59.5 80 L 59.5 81 L 25.5 81 L 25 76 Z " /><path fill="rgb(254,254,254)" stroke="rgb(254,254,254)" stroke-width="1" opacity="1" d="M 64.5 76 L 98.5 76 L 99 81 L 64 80.5 L 97 80 L 96.5 77 L 64.5 77 L 64.5 76 Z " /><path fill="rgb(254,254,254)" stroke="rgb(254,254,254)" stroke-width="1" opacity="1" d="M 59.5 83 L 60 126.5 L 59 126.5 L 59.5 83 Z " /><path fill="rgb(254,254,254)" stroke="rgb(254,254,254)" stroke-width="1" opacity="1" d="M 64.5 83 L 65 126.5 L 64 126.5 L 64.5 83 Z " /><path fill="rgb(254,254,254)" stroke="rgb(254,254,254)" stroke-width="1" opacity="1" d="M 59.5 128 L 60 130 L 55.5 132 L 55.5 131 L 59.5 128 Z " /><path fill="rgb(254,254,254)" stroke="rgb(254,254,254)" stroke-width="1" opacity="1" d="M 142 128 L 290.5 128 L 291 130.5 L 289.5 130 L 143.5 130 L 137 134.5 L 136.5 136 L 136 131 L 142 131 L 142 128 Z " /><path fill="rgb(254,254,254)" stroke="rgb(254,254,254)" stroke-width="1" opacity="1" d="M 327 128 L 469.5 128 L 470 129.5 Q 471.4 132.3 476 131 L 475.5 135 L 473.5 132 L 468.5 130 L 328.5 130 L 322 133.5 L 321.5 135 L 321 131 Q 325.6 132.3 327 129.5 L 327 128 Z " /><path fill="rgb(254,254,254)" stroke="rgb(254,254,254)" stroke-width="1" opacity="1" d="M 66.5 129 L 67 131 L 70 132.5 L 72 135.5 L 75 137 L 76.5 140 L 78 140 L 78 145 L 80 145 Q 78.9 147.7 81.5 147 L 87.5 154 L 85 153 L 83.5 150 L 79 148 L 81 151.5 L 79.5 151 L 74.5 147 L 73 144 L 70 142.5 Q 70.8 140.3 68.5 141 L 68.5 140 L 71 141.5 Q 70.3 143.8 72.5 143 L 74 146 L 79 148 L 77 142.5 L 69 132 L 66 130.5 L 66.5 129 Z " /><path fill="rgb(254,254,254)" stroke="rgb(254,254,254)" stroke-width="1" opacity="1" d="M 61.5 130 L 62.5 132 L 61 131.5 Q 60.2 134.1 63.5 133 L 68 138.5 L 66.5 138 L 63.5 136 L 61.5 135 L 59 136 L 59 138 Q 56.3 136.9 57 139.5 L 54 141 L 52.5 144 L 51 143.5 L 53 143 L 54.5 140 Q 56.8 140.8 56 138.5 L 60 134.5 Q 59.3 130.8 61.5 130 Z " /><path fill="rgb(254,254,254)" stroke="rgb(254,254,254)" stroke-width="1" opacity="1" d="M 292.5 131 L 297 131 L 297 137 L 300 137.5 L 300 209 Q 296.2 207.5 297 210.5 L 294 212 L 293.5 215 L 218.5 215 L 218.5 216 L 220 216.5 L 220 229.5 Q 218.4 232.5 213 231 L 213 215.5 L 212.5 215 L 139.5 215 L 139 212 L 136 212 L 136 207.5 L 133 206 L 133 137.5 L 135.5 137 L 135 138.5 L 135 204.5 L 138.5 211 Q 140.8 210.3 140 212.5 L 141.5 214 L 213.5 214 L 215.5 215 L 216.5 214 L 293 214 L 298 207.5 L 298 138.5 L 293.5 132 L 292.5 131 Z M 214 216 L 214 227 L 218 228 L 219 227 L 219 217 L 214 216 Z " /><path fill="rgb(254,254,254)" stroke="rgb(254,254,254)" stroke-width="1" opacity="1" d="M 54.5 133 L 52 136.5 L 44.5 146 L 44 142 L 52 135.5 Q 51.3 133.3 53.5 134 L 54.5 133 Z " /><path fill="rgb(254,254,254)" stroke="rgb(254,254,254)" stroke-width="1" opacity="1" d="M 141 136 L 292 136 L 292 210 L 141 210 L 141 136 Z M 167 158 L 160 162 Q 161 164 159 163 L 155 170 L 155 178 L 158 184 L 160 187 L 168 190 Q 176 190 180 186 L 183 178 Q 181 175 176 176 L 174 181 L 172 182 L 165 181 L 163 176 Q 162 167 168 165 Q 174 164 173 167 Q 175 172 182 170 L 181 164 L 174 158 L 167 158 Z M 266 158 L 262 160 Q 259 161 260 166 L 258 168 L 258 171 L 255 175 L 255 179 Q 251 182 252 188 L 255 189 L 259 188 Q 261 187 260 183 L 262 181 L 269 181 L 271 188 L 274 189 Q 277 190 278 188 L 278 183 L 273 173 L 273 168 L 270 165 L 270 160 L 266 158 Z M 186 159 L 184 161 L 184 188 L 187 189 L 190 188 L 191 188 L 191 161 Q 190 158 186 159 Z M 199 165 L 196 167 Q 192 169 194 175 L 196 176 L 192 181 L 194 187 L 198 189 Q 204 191 206 188 L 214 189 L 216 186 L 216 188 L 222 190 L 230 188 L 233 184 L 234 184 L 234 188 Q 239 188 242 191 L 244 189 L 249 188 L 252 184 Q 253 177 249 176 L 252 174 L 249 166 L 247 165 Q 240 164 237 166 L 233 172 L 234 177 L 236 179 Q 229 181 231 176 L 229 176 L 232 174 L 231 169 L 228 165 Q 221 164 218 166 L 214 172 Q 213 176 216 178 Q 217 180 214 179 L 214 184 L 212 184 L 212 170 Q 210 163 199 165 Z " /><path fill="rgb(254,254,254)" stroke="rgb(254,254,254)" stroke-width="1" opacity="1" d="M 326 136 L 472 136 L 472 210 L 325 209.5 L 326 205.5 L 325 204.5 L 325 139.5 L 326 136 Z M 352 158 L 345 162 Q 346 164 344 163 L 340 170 L 340 178 Q 343 179 342 184 Q 345 189 353 190 L 362 188 L 367 182 L 368 183 L 368 188 L 371 189 L 374 188 L 376 185 L 376 187 L 380 189 Q 386 191 388 188 L 391 189 Q 395 190 397 188 Q 401 187 403 190 L 412 188 L 414 184 L 414 186 L 421 190 L 431 188 L 433 184 L 433 188 L 437 189 Q 447 191 453 188 L 458 182 L 458 178 L 455 174 L 455 163 L 453 160 Q 447 161 445 158 Q 435 157 432 162 Q 431 167 433 169 Q 434 173 432 175 L 433 179 L 431 179 Q 432 175 430 176 L 430 175 Q 433 176 431 169 Q 429 163 419 165 L 414 173 L 413 168 L 409 165 Q 401 164 398 166 L 395 172 L 398 178 Q 399 180 397 179 L 395 184 L 394 170 Q 392 163 381 165 Q 376 167 376 173 L 375 162 Q 374 158 370 159 L 367 165 L 366 164 L 359 158 L 352 158 Z " /><path fill="rgb(254,254,254)" stroke="rgb(254,254,254)" stroke-width="1" opacity="1" d="M 476.5 136 L 479 137 L 479 208.5 L 477.5 209 L 476 212 Q 473 210.8 474 214.5 L 474.5 216 L 473.5 215 L 400.5 215 L 400.5 216 L 403 217.5 Q 404 226.5 402 231 Q 396.6 232.5 395 229.5 L 395 215.5 L 394.5 215 L 324.5 215 L 324 212 L 321 212 L 321 208.5 L 322 208.5 L 322 211 Q 325.7 209.5 325 212.5 L 326.5 214 L 395.5 214 L 397.5 215 L 398.5 214 L 473 214 L 473 211 Q 475.7 212.1 475 209.5 L 478 206.5 L 478 139.5 Q 475 138.5 476.5 136 Z M 398 216 L 396 218 L 396 227 L 400 228 L 401 227 L 401 217 L 398 216 Z " /><path fill="rgb(254,254,254)" stroke="rgb(254,254,254)" stroke-width="1" opacity="1" d="M 318 137 L 321 137.5 L 319 140.5 L 320 141.5 L 320 202.5 L 320 204.5 L 321 206.5 L 319.5 206 L 318 205.5 L 318 137 Z " /><path fill="rgb(254,254,254)" stroke="rgb(254,254,254)" stroke-width="1" opacity="1" d="M 41 147 L 44 147.5 L 42 148 L 41.5 150 L 41 147 Z " /><path fill="rgb(254,254,254)" stroke="rgb(254,254,254)" stroke-width="1" opacity="1" d="M 46.5 148 L 48 148.5 L 46 149 L 46 154 L 44.5 154 L 38.5 159 L 45 151.5 L 46.5 148 Z " /><path fill="rgb(254,254,254)" stroke="rgb(254,254,254)" stroke-width="1" opacity="1" d="M 37.5 152 L 39 152.5 L 36.5 154 L 37.5 152 Z " /><path fill="rgb(254,254,254)" stroke="rgb(254,254,254)" stroke-width="1" opacity="1" d="M 81.5 153 Q 85.6 161.9 93.5 167 L 96.5 169 L 98 167.5 L 96.5 165 L 99 166 Q 101.1 172.4 94 170 L 90.5 165 Q 88.3 165.8 89 163.5 L 86 162 L 84.5 159 Q 82.3 159.8 83 157.5 Q 79.9 156.4 81.5 153 Z " /><path fill="rgb(254,254,254)" stroke="rgb(254,254,254)" stroke-width="1" opacity="1" d="M 33 155 L 35 155.5 L 29 162.5 L 29 166 L 26 167.5 L 29 169 L 32.5 164 L 37.5 160 L 38 162 L 35 163.5 Q 35.8 165.8 33.5 165 L 30 170 L 25 170 L 25 166.5 L 28 165 L 28 160 L 31 160 Q 30 157 33 158 L 33 155 Z " /><path fill="rgb(254,254,254)" stroke="rgb(254,254,254)" stroke-width="1" opacity="1" d="M 89.5 155 L 91 155 L 91 158 Q 94 157 93 160 L 96 160 L 96 163.5 L 95 163.5 L 89.5 155 Z " /><path fill="rgb(254,254,254)" stroke="rgb(254,254,254)" stroke-width="1" opacity="1" d="M 351.5 165 L 356.5 165 L 361.5 170 L 368 170 L 368 176 L 361.5 176 L 356.5 182 L 349 181 L 348 171.5 L 351.5 165 Z " /><path fill="rgb(254,254,254)" stroke="rgb(254,254,254)" stroke-width="1" opacity="1" d="M 440 165 Q 446.1 163.2 448 166.5 L 446.5 169 Q 440.4 170.3 441 167.5 L 440 165 Z " /><path fill="rgb(254,254,254)" stroke="rgb(254,254,254)" stroke-width="1" opacity="1" d="M 265.5 170 L 266 173 L 264 172.5 L 265.5 170 Z " /><path fill="rgb(254,254,254)" stroke="rgb(254,254,254)" stroke-width="1" opacity="1" d="M 202.5 172 L 205 172.5 Q 202.9 175.8 202.5 172 Z " /><path fill="rgb(254,254,254)" stroke="rgb(254,254,254)" stroke-width="1" opacity="1" d="M 222.5 172 Q 225.8 170.9 225 173.5 L 223.5 173 L 222.5 172 Z " /><path fill="rgb(254,254,254)" stroke="rgb(254,254,254)" stroke-width="1" opacity="1" d="M 241.5 172 Q 245.3 171 244 174 L 241.5 172 Z " /><path fill="rgb(254,254,254)" stroke="rgb(254,254,254)" stroke-width="1" opacity="1" d="M 384.5 172 L 387 172.5 Q 384.9 175.8 384.5 172 Z " /><path fill="rgb(254,254,254)" stroke="rgb(254,254,254)" stroke-width="1" opacity="1" d="M 403.5 172 L 406 172.5 L 403.5 173 L 403.5 172 Z " /><path fill="rgb(254,254,254)" stroke="rgb(254,254,254)" stroke-width="1" opacity="1" d="M 421.5 172 L 424 172.5 L 421.5 173 L 421.5 172 Z " /><path fill="rgb(254,254,254)" stroke="rgb(254,254,254)" stroke-width="1" opacity="1" d="M 375 174 L 378 175.5 L 375.5 179 L 375 174 Z " /><path fill="rgb(254,254,254)" stroke="rgb(254,254,254)" stroke-width="1" opacity="1" d="M 412.5 174 Q 414.8 173.3 414 175.5 L 416 179 Q 412.3 180.5 413 177.5 L 410 175.5 L 412.5 174 Z " /><path fill="rgb(254,254,254)" stroke="rgb(254,254,254)" stroke-width="1" opacity="1" d="M 441 176 Q 447 175.3 450 178 Q 451.8 183.3 444.5 181 L 442.5 181 L 440 179.5 L 441 176 Z " /><path fill="rgb(254,254,254)" stroke="rgb(254,254,254)" stroke-width="1" opacity="1" d="M 15 178 Q 20.4 176.5 22 179.5 L 21.5 183 L 21 181 L 15.5 182 L 15 178 Z " /><path fill="rgb(254,254,254)" stroke="rgb(254,254,254)" stroke-width="1" opacity="1" d="M 32.5 178 Q 37.8 176.8 39 179.5 L 39 181 L 41 181.5 L 41 189 L 43 189 L 43.5 186 L 57 186 L 57 189 Q 59.7 187.9 59 190.5 L 54.5 187 Q 44.3 184.8 42 190.5 L 41.5 193 L 40.5 189 L 39 190.5 L 38.5 200 L 38 181 Q 33.4 179.8 32 182.5 L 32 196.5 L 30.5 200 L 30 181.5 L 32.5 178 Z " /><path fill="rgb(254,254,254)" stroke="rgb(254,254,254)" stroke-width="1" opacity="1" d="M 202.5 180 Q 206.3 179 205 182 L 200 183 Q 198.9 180.3 201.5 181 L 202.5 180 Z " /><path fill="rgb(254,254,254)" stroke="rgb(254,254,254)" stroke-width="1" opacity="1" d="M 220 180 L 225 181 Q 226.3 184.3 221.5 183 L 220 180 Z " /><path fill="rgb(254,254,254)" stroke="rgb(254,254,254)" stroke-width="1" opacity="1" d="M 239 180 L 244 181 Q 245.3 184 241.5 183 L 239 182 L 239 180 Z " /><path fill="rgb(254,254,254)" stroke="rgb(254,254,254)" stroke-width="1" opacity="1" d="M 384.5 180 Q 388.3 179 387 182 L 382 183 Q 380.9 180.3 383.5 181 L 384.5 180 Z " /><path fill="rgb(254,254,254)" stroke="rgb(254,254,254)" stroke-width="1" opacity="1" d="M 403.5 180 L 406 181 Q 407.3 184 403.5 183 Q 400.5 181.5 403.5 180 Z " /><path fill="rgb(254,254,254)" stroke="rgb(254,254,254)" stroke-width="1" opacity="1" d="M 421 180 L 425 181 Q 426.2 184.7 421 183 L 421 180 Z " /><path fill="rgb(254,254,254)" stroke="rgb(254,254,254)" stroke-width="1" opacity="1" d="M 82.5 184 L 83 186 L 95.5 186 L 96 187.5 L 94.5 187 L 84 187 L 84 209 Q 88.6 210.3 90 207.5 L 90 194.5 L 91.5 193 Q 95.9 194.5 95 191.5 L 96 191.5 L 96 194 L 91 194.5 L 91 210 L 83.5 210 L 83 211.5 L 81 210.5 L 83 210 L 83 186.5 L 81.5 186 L 82.5 184 Z " /><path fill="rgb(254,254,254)" stroke="rgb(254,254,254)" stroke-width="1" opacity="1" d="M 65 186 L 76.5 186 L 77 187.5 L 80 189 L 81 194.5 L 80 194.5 L 80 191.5 L 75.5 187 Q 65.3 184.8 63 190.5 Q 60 193.5 60 199.5 L 62 204.5 L 61 204.5 Q 61.7 201.9 59 203 L 59 200.5 L 56.5 197 L 55 196.5 L 58 194.5 L 58.5 193 L 59.5 195 L 62 189 L 65 187.5 L 65 186 Z M 58 196 L 59 198 Q 60 195 58 196 Z " /><path fill="rgb(254,254,254)" stroke="rgb(254,254,254)" stroke-width="1" opacity="1" d="M 49.5 192 L 49.5 194 L 51.5 193 L 52.5 195 Q 48.8 195.8 48 193.5 L 49.5 192 Z " /><path fill="rgb(254,254,254)" stroke="rgb(254,254,254)" stroke-width="1" opacity="1" d="M 69.5 193 L 71.5 194 L 73 193.5 L 73 195 L 69 195 L 69.5 193 Z " /><path fill="rgb(254,254,254)" stroke="rgb(254,254,254)" stroke-width="1" opacity="1" d="M 41.5 195 L 45 199.5 L 43 200 Q 44 197 41 198 L 41.5 195 Z " /><path fill="rgb(254,254,254)" stroke="rgb(254,254,254)" stroke-width="1" opacity="1" d="M 81.5 196 L 82 199.5 L 80.5 205 L 80 199.5 L 81.5 196 Z " /><path fill="rgb(254,254,254)" stroke="rgb(254,254,254)" stroke-width="1" opacity="1" d="M 46.5 201 L 52 201.5 L 48 202.5 L 52 204.5 L 49.5 205 L 46.5 201 Z " /><path fill="rgb(254,254,254)" stroke="rgb(254,254,254)" stroke-width="1" opacity="1" d="M 68 201 L 75 201.5 Q 74.3 204.8 69.5 204 L 68 201 Z M 70 202 L 70 203 L 73 203 L 70 202 Z " /><path fill="rgb(254,254,254)" stroke="rgb(254,254,254)" stroke-width="1" opacity="1" d="M 23.5 202 L 31 202.5 L 25.5 204 L 23.5 202 Z " /><path fill="rgb(254,254,254)" stroke="rgb(254,254,254)" stroke-width="1" opacity="1" d="M 15.5 203 L 20.5 209 L 28.5 210 L 34.5 208 L 35 210 L 29.5 210 Q 30.5 213 25.5 212 Q 23.8 208.5 18 210 L 17 206 Q 13.5 207.1 15.5 203 Z " /><path fill="rgb(254,254,254)" stroke="rgb(254,254,254)" stroke-width="1" opacity="1" d="M 37.5 204 L 38 207 L 35 206.5 L 37 206 L 37.5 204 Z " /><path fill="rgb(254,254,254)" stroke="rgb(254,254,254)" stroke-width="1" opacity="1" d="M 41.5 205 L 44.5 209 L 52 210 L 52 212 L 47 212 Q 48.4 208.3 42.5 210 Q 39.8 208.8 41.5 205 Z " /><path fill="rgb(254,254,254)" stroke="rgb(254,254,254)" stroke-width="1" opacity="1" d="M 58.5 206 L 59 210 L 53 209.5 L 58.5 206 Z " /><path fill="rgb(254,254,254)" stroke="rgb(254,254,254)" stroke-width="1" opacity="1" d="M 62.5 206 Q 65.1 210.9 73.5 210 L 79.5 206 L 80 207.5 L 79 210 L 69.5 212 L 67.5 210 Q 63 211 62 208.5 L 62.5 206 Z " /><path fill="rgb(254,254,254)" stroke="rgb(254,254,254)" stroke-width="1" opacity="1" d="M 58.5 212 Q 61.8 210.9 61 213.5 L 65 216.5 L 65 228.5 L 64 231 Q 58.6 232.5 57 229.5 L 57 213.5 L 58.5 212 Z M 60 215 L 58 217 L 58 227 L 62 228 L 63 227 L 63 218 L 60 215 Z " /><path fill="rgb(254,254,254)" stroke="rgb(254,254,254)" stroke-width="1" opacity="1" d="M 57 239 Q 63.1 237.3 65 240.5 L 65 255.5 L 63.5 257 L 57 257 L 57 239 Z M 59 241 L 58 244 L 58 253 L 60 254 L 63 254 L 63 243 L 59 241 Z " /><path fill="rgb(254,254,254)" stroke="rgb(254,254,254)" stroke-width="1" opacity="1" d="M 213 239 L 220 239 L 220 257 L 213 257 L 213 239 Z M 216 241 L 214 243 L 214 253 L 218 254 L 219 253 L 219 243 L 216 241 Z " /><path fill="rgb(254,254,254)" stroke="rgb(254,254,254)" stroke-width="1" opacity="1" d="M 395 239 L 401.5 239 L 402 240.5 L 403 241.5 L 403 253.5 L 402 257 L 395 257 L 395 239 Z M 398 241 L 396 243 L 396 253 L 400 254 L 401 253 L 401 243 L 398 241 Z " /><path fill="rgb(254,254,254)" stroke="rgb(254,254,254)" stroke-width="1" opacity="1" d="M 57 265 Q 63.1 263.3 65 266.5 L 65 281.5 L 63.5 283 L 57 283 L 57 265 Z M 61 267 L 58 270 L 58 279 Q 60 283 62 280 L 63 280 L 63 268 L 61 267 Z " /><path fill="rgb(254,254,254)" stroke="rgb(254,254,254)" stroke-width="1" opacity="1" d="M 81 265 L 88 265.5 L 81.5 267 L 81 265 Z " /><path fill="rgb(254,254,254)" stroke="rgb(254,254,254)" stroke-width="1" opacity="1" d="M 93.5 265 L 98 265.5 Q 96.8 268.3 95.5 266 Q 92.5 266.5 93.5 265 Z " /><path fill="rgb(254,254,254)" stroke="rgb(254,254,254)" stroke-width="1" opacity="1" d="M 104.5 265 L 107 265 Q 105.5 268.8 108.5 268 L 110 269.5 L 110 284.5 L 108.5 286 L 102 286 L 102.5 284 L 107.5 285 L 109 283.5 L 109 271.5 L 106 266 L 104.5 265 Z " /><path fill="rgb(254,254,254)" stroke="rgb(254,254,254)" stroke-width="1" opacity="1" d="M 114.5 265 L 118 265.5 L 113 268 Q 111.3 274.6 115 276.5 Q 112 277.5 113 282.5 L 117 285.5 L 113.5 286 L 112 284.5 L 112 267.5 L 114.5 265 Z " /><path fill="rgb(254,254,254)" stroke="rgb(254,254,254)" stroke-width="1" opacity="1" d="M 124.5 265 Q 129.3 263.3 128 267.5 L 131 269 L 128 276 Q 130.7 274.9 130 277.5 L 131 277.5 L 131 272.5 Q 134 271.3 133 267 L 136 267 Q 134.8 264 138.5 265 L 138.5 266 L 134 268 L 132 273.5 L 132 278.5 L 132.5 280 L 131 279.5 L 131 283 Q 126.5 281.5 128 286 L 124.5 286 L 124.5 285 Q 127.8 286.1 127 283.5 L 130 279.5 L 127 275.5 L 127 272.5 L 128 268.5 L 124.5 265 Z " /><path fill="rgb(254,254,254)" stroke="rgb(254,254,254)" stroke-width="1" opacity="1" d="M 144.5 265 L 151.5 265 L 152 265.5 L 152 290 L 143.5 295 L 139.5 295 L 138.5 293 Q 146.8 294.3 149 289.5 L 151 286.5 L 151 266 L 144.5 266 L 144.5 265 Z " /><path fill="rgb(254,254,254)" stroke="rgb(254,254,254)" stroke-width="1" opacity="1" d="M 213 265 L 220 265 L 220 283 L 213 283 L 213 265 Z M 217 267 L 214 268 L 214 280 L 216 280 L 218 280 L 219 280 L 219 268 L 217 267 Z " /><path fill="rgb(254,254,254)" stroke="rgb(254,254,254)" stroke-width="1" opacity="1" d="M 395 265 L 402 265 L 402 267.5 L 403 268.5 L 403 279.5 L 402 283 L 395 283 L 395 265 Z M 399 267 L 396 270 L 396 279 Q 398 283 400 280 L 401 280 L 401 268 L 399 267 Z " /><path fill="rgb(254,254,254)" stroke="rgb(254,254,254)" stroke-width="1" opacity="1" d="M 89.5 271 L 92 272.5 L 92 285 L 98 285 L 98.5 273 L 99 286 Q 102 285 101 288 Q 97.9 288.8 98.5 286 L 91 286 Q 92 289 89 288 Q 88.3 284.9 91 285.5 L 91 272 L 88.5 273 L 89.5 271 Z " /><path fill="rgb(254,254,254)" stroke="rgb(254,254,254)" stroke-width="1" opacity="1" d="M 99.5 271 L 102 271.5 L 99.5 272 L 99.5 271 Z " /><path fill="rgb(254,254,254)" stroke="rgb(254,254,254)" stroke-width="1" opacity="1" d="M 120 271 L 124 272.5 L 121.5 273 Q 118.9 273.7 120 271 Z " /><path fill="rgb(254,254,254)" stroke="rgb(254,254,254)" stroke-width="1" opacity="1" d="M 141.5 271 L 143 271.5 L 139 273 L 139 278 Q 141.7 276.9 141 279.5 L 142.5 279 L 144 279.5 L 141.5 281 Q 137 280 138 273.5 L 141.5 271 Z " /><path fill="rgb(254,254,254)" stroke="rgb(254,254,254)" stroke-width="1" opacity="1" d="M 144.5 273 L 145 277.5 L 144 277.5 L 144.5 273 Z " /><path fill="rgb(254,254,254)" stroke="rgb(254,254,254)" stroke-width="1" opacity="1" d="M 116.5 277 Q 118.8 276.3 118 278.5 L 119.5 281 L 116.5 277 Z " /><path fill="rgb(254,254,254)" stroke="rgb(254,254,254)" stroke-width="1" opacity="1" d="M 120.5 278 L 123 279.5 L 122.5 281 L 122 279 L 120.5 278 Z " /><path fill="rgb(254,254,254)" stroke="rgb(254,254,254)" stroke-width="1" opacity="1" d="M 133.5 281 L 135 284.5 L 134 291 L 137 292.5 L 135.5 292 L 133 290.5 Q 133.8 286.3 131 285.5 L 133 285 L 133.5 281 Z " /><path fill="rgb(254,254,254)" stroke="rgb(254,254,254)" stroke-width="1" opacity="1" d="M 171.5 283 L 177 283 L 177 285.5 L 174.5 284 L 171 285.5 Q 169.8 291.6 172.5 291 L 174.5 294 L 171.5 292 Q 168.5 290.5 170 284.5 L 171.5 283 Z " /><path fill="rgb(254,254,254)" stroke="rgb(254,254,254)" stroke-width="1" opacity="1" d="M 87.5 284 L 88 286 L 81 285.5 L 87.5 284 Z " /><path fill="rgb(254,254,254)" stroke="rgb(254,254,254)" stroke-width="1" opacity="1" d="M 138 285 L 144 285.5 L 141 286.5 L 143 287.5 L 141.5 288 L 138 287 L 138 285 Z " /><path fill="rgb(254,254,254)" stroke="rgb(254,254,254)" stroke-width="1" opacity="1" d="M 110 286 L 112 286.5 L 110 287.5 L 110 286 Z " /><path fill="rgb(254,254,254)" stroke="rgb(254,254,254)" stroke-width="1" opacity="1" d="M 118.5 286 Q 123.3 284.7 122 288 Q 118.2 288.8 118.5 286 Z " /><path fill="rgb(254,254,254)" stroke="rgb(254,254,254)" stroke-width="1" opacity="1" d="M 178.5 286 Q 182.9 284.5 182 287.5 L 182.5 289 L 178.5 287 L 178.5 286 Z " /><path fill="rgb(254,254,254)" stroke="rgb(254,254,254)" stroke-width="1" opacity="1" d="M 188.5 289 Q 190.8 288.3 190 290.5 L 188.5 289 Z " /><path fill="rgb(254,254,254)" stroke="rgb(254,254,254)" stroke-width="1" opacity="1" d="M 57 291 L 62.5 291 L 63 292.5 L 63.5 294 Q 58.1 292.1 59 295.5 L 58 296.5 L 58 304.5 L 59 307 L 63 305.5 Q 62 301 64.5 300 L 173.5 300 L 174 301.5 L 170 305.5 L 170 307.5 L 170.5 309 Q 165.9 310.2 168 305 L 173 301.5 L 171.5 301 L 170.5 302 L 67.5 302 L 65.5 301 Q 62.8 302.3 65 303.5 Q 66 308 63.5 309 L 57 309 L 57 291 Z " /><path fill="rgb(254,254,254)" stroke="rgb(254,254,254)" stroke-width="1" opacity="1" d="M 191.5 291 Q 195.9 289.5 195 292.5 L 195.5 294 L 191.5 292 L 191.5 291 Z " /><path fill="rgb(254,254,254)" stroke="rgb(254,254,254)" stroke-width="1" opacity="1" d="M 214 291 L 219 291.5 L 218.5 293 L 220 293.5 L 213.5 294 L 214 292.5 L 214 291 Z " /><path fill="rgb(254,254,254)" stroke="rgb(254,254,254)" stroke-width="1" opacity="1" d="M 395 291 L 402 291 L 402 293.5 L 403 294.5 L 403 306.5 L 402 309 L 395 309 L 395 291 Z M 398 294 L 396 296 L 396 306 L 400 307 L 401 306 L 401 296 L 398 294 Z " /><path fill="rgb(254,254,254)" stroke="rgb(254,254,254)" stroke-width="1" opacity="1" d="M 232.5 294 L 234 294.5 L 234 325 L 231 324.5 L 233 324 L 233 295.5 L 232.5 294 Z " /><path fill="rgb(254,254,254)" stroke="rgb(254,254,254)" stroke-width="1" opacity="1" d="M 197.5 300 L 196.5 302 L 197.5 300 Z " /><path fill="rgb(254,254,254)" stroke="rgb(254,254,254)" stroke-width="1" opacity="1" d="M 207.5 300 L 225.5 300 L 227 301.5 L 227 317.5 L 225.5 318 L 226 316.5 L 226 301.5 L 223.5 301 L 222.5 302 L 209.5 302 L 207 301 L 206.5 318 L 206 301.5 L 207.5 300 Z " /><path fill="rgb(254,254,254)" stroke="rgb(254,254,254)" stroke-width="1" opacity="1" d="M 199.5 301 L 200 324 L 212.5 324 L 214 325.5 Q 212.8 330.8 215.5 332 L 217.5 333 L 219 331.5 Q 217.5 325.5 220.5 324 L 229 324.5 L 220 325 L 220 336 L 216 336 L 216 333 L 213 332.5 L 213 325 L 199 325 L 199.5 301 Z " /><path fill="rgb(254,254,254)" stroke="rgb(254,254,254)" stroke-width="1" opacity="1" d="M 189.5 303 L 193 303.5 L 189.5 304 L 189.5 303 Z " /><path fill="rgb(254,254,254)" stroke="rgb(254,254,254)" stroke-width="1" opacity="1" d="M 185.5 304 L 185 305.5 Q 185.9 308.5 181.5 307 L 181.5 306 L 185.5 304 Z " /><path fill="rgb(254,254,254)" stroke="rgb(254,254,254)" stroke-width="1" opacity="1" d="M 59.5 317 Q 64.3 316.3 65 319.5 L 65 333.5 L 64 336 L 60 336 Q 61.5 331.5 57 333 L 57 318 L 59.5 317 Z M 60 320 L 58 322 L 58 331 L 62 333 L 63 333 L 63 322 L 60 320 Z " /><path fill="rgb(254,254,254)" stroke="rgb(254,254,254)" stroke-width="1" opacity="1" d="M 209.5 317 L 224 317.5 L 209.5 318 L 209.5 317 Z " /><path fill="rgb(254,254,254)" stroke="rgb(254,254,254)" stroke-width="1" opacity="1" d="M 397.5 317 Q 401.3 316.3 402 318.5 L 403 320.5 L 403 332.5 L 402 336 L 398 336 Q 399.5 331.5 395 333 L 395 318 L 397.5 317 Z M 398 320 L 396 322 L 396 331 L 400 333 L 401 332 L 401 322 L 398 320 Z " /><path fill="rgb(254,254,254)" stroke="rgb(254,254,254)" stroke-width="1" opacity="1" d="M 140.5 338 L 292.5 338 L 294 339.5 Q 293.2 342.5 297 341 L 297 347 L 300 347.5 L 300 415.5 L 297 417 L 297 422 L 295.5 422 L 296 420.5 Q 295 415.5 298 414.5 L 298 348.5 Q 294.8 347.1 296 342 Q 291.8 343 292.5 340 L 288.5 340 L 287.5 339 L 142.5 339 L 137 342 Q 138.2 347.1 135 348.5 L 135 414.5 L 138 421.5 L 136 422 Q 137.3 417.4 134.5 416 L 133 415.5 L 133 347 L 136 347 L 136 341 Q 139.8 342.5 139 339.5 L 140.5 338 Z " /><path fill="rgb(254,254,254)" stroke="rgb(254,254,254)" stroke-width="1" opacity="1" d="M 325.5 338 L 472.5 338 L 473 341 Q 476.8 339.5 476 342.5 L 474.5 342 L 467.5 339 L 327.5 339 L 322 342 Q 323.3 348 319 349.5 L 320 350.5 L 320 412.5 L 320 414.5 L 321 416.5 L 319.5 416 L 318 415.5 L 318 347 L 321 345.5 L 321 341 Q 324.7 342.5 324 339.5 L 325.5 338 Z " /><path fill="rgb(254,254,254)" stroke="rgb(254,254,254)" stroke-width="1" opacity="1" d="M 144.5 343 L 289.5 343 L 290 344.5 L 292 346.5 L 292 418 L 288.5 420 L 143.5 420 L 141 417.5 L 141 348.5 L 140 347.5 L 143 346 L 144.5 343 Z M 167 365 L 162 368 L 155 377 L 155 385 Q 158 386 157 391 L 163 396 L 170 398 L 178 395 Q 177 392 180 393 L 183 384 L 176 383 L 175 387 L 170 390 L 165 389 L 163 383 L 165 375 Q 166 371 172 372 L 173 375 L 178 378 L 182 377 L 181 371 L 174 365 L 167 365 Z M 187 366 L 186 367 L 184 368 L 184 396 L 191 396 L 191 396 L 191 368 Q 190 365 187 366 Z M 265 366 L 261 367 L 257 381 L 255 383 L 255 387 Q 252 389 252 395 Q 253 397 259 396 Q 261 395 260 391 Q 262 386 269 388 Q 268 391 271 393 L 271 396 L 278 396 L 278 390 L 275 384 Q 276 380 273 381 L 273 376 Q 269 374 270 369 L 265 366 Z M 198 373 L 194 377 Q 193 381 195 383 L 192 388 L 194 395 L 199 397 L 203 396 L 214 396 L 214 394 Q 217 393 216 396 Q 220 395 223 398 Q 225 395 230 396 L 233 391 Q 235 390 234 395 L 241 398 L 245 396 L 249 396 L 252 391 L 252 387 L 249 382 L 252 381 L 251 378 L 249 375 L 248 373 L 237 373 L 233 380 Q 230 379 231 376 L 229 373 L 218 373 L 214 380 L 216 385 Q 217 387 214 386 L 213 389 L 214 391 L 212 391 L 212 376 L 209 375 L 209 373 L 198 373 Z " /><path fill="rgb(254,254,254)" stroke="rgb(254,254,254)" stroke-width="1" opacity="1" d="M 328 343 L 468.5 343 L 472 346.5 L 472 416.5 L 470.5 418 L 469 418 L 468.5 420 L 328.5 420 L 325 414.5 L 325 346 L 328 344.5 L 328 343 Z M 352 365 L 347 368 L 344 370 L 340 377 L 340 386 L 345 395 L 354 398 L 358 396 Q 363 398 362 395 L 365 393 L 366 390 L 368 391 Q 365 399 374 396 L 376 393 L 377 396 L 382 397 Q 387 395 397 396 L 398 395 L 404 398 Q 406 395 412 396 L 414 392 L 416 396 Q 420 395 422 398 L 426 396 L 430 396 L 433 391 L 433 395 L 435 396 L 452 396 L 458 389 Q 459 383 455 382 L 455 370 L 447 366 L 436 366 L 432 370 Q 431 375 433 377 L 432 382 L 433 385 L 433 387 L 430 384 L 431 382 Q 432 376 429 375 L 429 373 L 418 373 L 414 380 L 413 377 L 410 373 L 398 373 L 395 379 L 395 382 L 398 386 L 396 386 L 395 391 L 394 391 L 394 377 L 392 376 L 392 375 L 391 373 L 380 373 Q 375 374 376 380 L 375 369 L 373 366 Q 369 365 368 368 Q 370 373 367 372 L 364 368 Q 360 368 358 365 L 352 365 Z " /><path fill="rgb(254,254,254)" stroke="rgb(254,254,254)" stroke-width="1" opacity="1" d="M 15 346 Q 20.4 344.5 22 347.5 L 21.5 351 L 21 349 L 15.5 350 L 15 346 Z " /><path fill="rgb(254,254,254)" stroke="rgb(254,254,254)" stroke-width="1" opacity="1" d="M 32.5 346 Q 37.8 344.8 39 347.5 L 39 349 L 41 349.5 L 41 357 L 43 357 L 43.5 354 L 57 354 L 57 357 Q 59.7 355.9 59 358.5 L 54.5 355 Q 44.3 352.8 42 358.5 L 41.5 361 L 40.5 357 L 39 358.5 L 38.5 368 L 38 349 Q 33.4 347.8 32 350.5 L 32 365.5 L 30.5 368 L 30 349.5 L 32.5 346 Z " /><path fill="rgb(254,254,254)" stroke="rgb(254,254,254)" stroke-width="1" opacity="1" d="M 476.5 346 L 479 347 L 479 416.5 L 476.5 417 L 475 417.5 L 478 414.5 L 478 349.5 Q 475 348.5 476.5 346 Z " /><path fill="rgb(254,254,254)" stroke="rgb(254,254,254)" stroke-width="1" opacity="1" d="M 82.5 352 L 83 354 L 95.5 354 L 96 355.5 L 94.5 355 L 84 355 L 84 377 Q 88.6 378.3 90 375.5 L 90 362.5 L 91.5 361 Q 95.9 362.5 95 359.5 L 96 359.5 L 96 362 L 91 362.5 L 91 378 L 83.5 378 L 83 379.5 L 81 378.5 L 83 378 L 83 354.5 L 81.5 354 L 82.5 352 Z " /><path fill="rgb(254,254,254)" stroke="rgb(254,254,254)" stroke-width="1" opacity="1" d="M 65 354 L 76.5 354 L 77 355.5 L 80 357 L 81 362.5 L 80 362.5 L 80 359.5 L 75.5 355 L 66.5 355 L 65.5 356 L 65 354 Z " /><path fill="rgb(254,254,254)" stroke="rgb(254,254,254)" stroke-width="1" opacity="1" d="M 62 357 L 64 357.5 L 60 364.5 L 60 367.5 L 62 372.5 L 61 372.5 Q 61.7 369.9 59 371 L 59 368.5 L 58 366 L 55 364.5 L 58 362.5 L 58.5 361 L 59.5 363 L 62 357 Z M 58 364 L 59 366 Q 60 363 58 364 Z " /><path fill="rgb(254,254,254)" stroke="rgb(254,254,254)" stroke-width="1" opacity="1" d="M 49.5 360 L 49.5 362 L 51.5 361 L 52.5 363 Q 48.8 363.8 48 361.5 L 49.5 360 Z " /><path fill="rgb(254,254,254)" stroke="rgb(254,254,254)" stroke-width="1" opacity="1" d="M 69 361 Q 72 360 71 363 Q 68 364 69 361 Z " /><path fill="rgb(254,254,254)" stroke="rgb(254,254,254)" stroke-width="1" opacity="1" d="M 41.5 363 L 45 367.5 L 43 368 Q 44 365 41 366 L 41.5 363 Z " /><path fill="rgb(254,254,254)" stroke="rgb(254,254,254)" stroke-width="1" opacity="1" d="M 81.5 364 L 82 367.5 L 80.5 373 L 80 367.5 L 81.5 364 Z " /><path fill="rgb(254,254,254)" stroke="rgb(254,254,254)" stroke-width="1" opacity="1" d="M 46.5 369 L 52 369.5 L 48 370.5 L 52 372.5 L 49.5 373 L 46.5 369 Z " /><path fill="rgb(254,254,254)" stroke="rgb(254,254,254)" stroke-width="1" opacity="1" d="M 68 369 L 75 369.5 L 71.5 372 L 71.5 371 L 73 370.5 L 69.5 370 L 69.5 372 L 68 369 Z " /><path fill="rgb(254,254,254)" stroke="rgb(254,254,254)" stroke-width="1" opacity="1" d="M 23.5 370 L 31 370.5 L 25.5 372 L 23.5 370 Z " /><path fill="rgb(254,254,254)" stroke="rgb(254,254,254)" stroke-width="1" opacity="1" d="M 15.5 371 L 20.5 377 L 29 378 Q 30.3 381.3 25.5 380 Q 23.8 376.5 18 378 L 17 374 Q 13.5 375.1 15.5 371 Z " /><path fill="rgb(254,254,254)" stroke="rgb(254,254,254)" stroke-width="1" opacity="1" d="M 37.5 372 L 38 375 L 35 374.5 L 37 374 L 37.5 372 Z " /><path fill="rgb(254,254,254)" stroke="rgb(254,254,254)" stroke-width="1" opacity="1" d="M 352.5 372 Q 357 371 358 373.5 L 358 375 L 360 375 Q 358.9 377.7 361.5 377 L 363.5 378 L 366.5 377 Q 369.3 378.4 368 383 L 361.5 383 L 360 384.5 L 357.5 389 L 354.5 390 L 349 387.5 L 348 379.5 L 349 375.5 L 352.5 372 Z " /><path fill="rgb(254,254,254)" stroke="rgb(254,254,254)" stroke-width="1" opacity="1" d="M 441.5 372 L 448 373 Q 449.8 377.5 444.5 376 L 442.5 377 L 440 373.5 L 441.5 372 Z " /><path fill="rgb(254,254,254)" stroke="rgb(254,254,254)" stroke-width="1" opacity="1" d="M 41.5 373 L 44.5 377 L 52 378 L 52 380 L 47 380 Q 48.4 376.3 42.5 378 Q 39.8 376.8 41.5 373 Z " /><path fill="rgb(254,254,254)" stroke="rgb(254,254,254)" stroke-width="1" opacity="1" d="M 58.5 374 L 59 378 L 53 377.5 L 58.5 374 Z " /><path fill="rgb(254,254,254)" stroke="rgb(254,254,254)" stroke-width="1" opacity="1" d="M 62.5 374 Q 65.1 378.9 73.5 378 L 79.5 374 L 80 375.5 L 79 378 L 69.5 380 L 67.5 378 Q 63 379 62 376.5 L 62.5 374 Z " /><path fill="rgb(254,254,254)" stroke="rgb(254,254,254)" stroke-width="1" opacity="1" d="M 34.5 376 L 35 378 L 30 377.5 L 34.5 376 Z " /><path fill="rgb(254,254,254)" stroke="rgb(254,254,254)" stroke-width="1" opacity="1" d="M 265.5 378 L 266 381 Q 263.3 382.1 264 379.5 L 265.5 378 Z " /><path fill="rgb(254,254,254)" stroke="rgb(254,254,254)" stroke-width="1" opacity="1" d="M 202.5 379 L 205 380.5 L 201.5 381 L 202.5 379 Z " /><path fill="rgb(254,254,254)" stroke="rgb(254,254,254)" stroke-width="1" opacity="1" d="M 241 379 L 244 380.5 L 241 381 L 241 379 Z " /><path fill="rgb(254,254,254)" stroke="rgb(254,254,254)" stroke-width="1" opacity="1" d="M 385.5 379 L 386.5 381 L 383 380.5 L 385.5 379 Z " /><path fill="rgb(254,254,254)" stroke="rgb(254,254,254)" stroke-width="1" opacity="1" d="M 403 379 L 406 380.5 L 403 381 L 403 379 Z " /><path fill="rgb(254,254,254)" stroke="rgb(254,254,254)" stroke-width="1" opacity="1" d="M 421 379 L 424 380.5 L 421 381 L 421 379 Z " /><path fill="rgb(254,254,254)" stroke="rgb(254,254,254)" stroke-width="1" opacity="1" d="M 222.5 380 L 226 380.5 L 222.5 381 L 222.5 380 Z " /><path fill="rgb(254,254,254)" stroke="rgb(254,254,254)" stroke-width="1" opacity="1" d="M 232.5 381 L 234 385 L 236 385.5 L 231 386 L 230 382 L 232.5 381 Z " /><path fill="rgb(254,254,254)" stroke="rgb(254,254,254)" stroke-width="1" opacity="1" d="M 375.5 381 L 378 382.5 L 375.5 386 L 375.5 381 Z " /><path fill="rgb(254,254,254)" stroke="rgb(254,254,254)" stroke-width="1" opacity="1" d="M 413.5 381 L 416 385.5 L 413 387 L 413 384 Q 410 385 411 382 L 413.5 381 Z " /><path fill="rgb(254,254,254)" stroke="rgb(254,254,254)" stroke-width="1" opacity="1" d="M 55 383 L 68.5 383 L 69 384.5 L 69.5 386 Q 66.3 382.2 57.5 384 L 54.5 386 L 55 384.5 L 55 383 Z " /><path fill="rgb(254,254,254)" stroke="rgb(254,254,254)" stroke-width="1" opacity="1" d="M 442.5 383 L 450 385 Q 451.5 388.7 448.5 388 Q 447 390.5 441.5 389 Q 438.8 387.8 441 386.5 L 442.5 383 Z " /><path fill="rgb(254,254,254)" stroke="rgb(254,254,254)" stroke-width="1" opacity="1" d="M 49 386 L 52 386.5 L 50 387 Q 51.1 389.7 48.5 389 L 49 387.5 L 49 386 Z " /><path fill="rgb(254,254,254)" stroke="rgb(254,254,254)" stroke-width="1" opacity="1" d="M 72.5 386 Q 75.8 384.9 75 387.5 L 75.5 389 L 72.5 387 L 72.5 386 Z " /><path fill="rgb(254,254,254)" stroke="rgb(254,254,254)" stroke-width="1" opacity="1" d="M 46.5 388 L 47 390.5 L 44 392.5 Q 43.3 389.9 46 391 L 46.5 388 Z " /><path fill="rgb(254,254,254)" stroke="rgb(254,254,254)" stroke-width="1" opacity="1" d="M 60.5 388 L 68.5 390 L 76 394.5 L 81 402.5 L 81 413 L 78 414.5 L 78 418 Q 75.3 416.9 76 419.5 Q 74.7 423.8 70 423 L 69.5 425 L 54 425 Q 55.3 422 51.5 423 L 48 418 Q 44.7 419.3 46 414.5 Q 41 412.5 43 403.5 L 49.5 393 L 58.5 390 L 60.5 388 Z " /><path fill="rgb(254,254,254)" stroke="rgb(254,254,254)" stroke-width="1" opacity="1" d="M 200 388 L 205 388.5 L 201.5 391 L 200 388 Z " /><path fill="rgb(254,254,254)" stroke="rgb(254,254,254)" stroke-width="1" opacity="1" d="M 220.5 388 Q 226.8 386.1 225 391 Q 220.5 391.7 220.5 388 Z " /><path fill="rgb(254,254,254)" stroke="rgb(254,254,254)" stroke-width="1" opacity="1" d="M 239.5 388 Q 245.8 386.1 244 391 Q 239.5 391.7 239.5 388 Z " /><path fill="rgb(254,254,254)" stroke="rgb(254,254,254)" stroke-width="1" opacity="1" d="M 382 388 L 387 388.5 L 383.5 391 L 382 388 Z " /><path fill="rgb(254,254,254)" stroke="rgb(254,254,254)" stroke-width="1" opacity="1" d="M 402.5 388 Q 407.8 386.5 406 391 L 402.5 388 Z " /><path fill="rgb(254,254,254)" stroke="rgb(254,254,254)" stroke-width="1" opacity="1" d="M 421 388 L 425 389.5 L 422.5 391 L 421 388 Z " /><path fill="rgb(254,254,254)" stroke="rgb(254,254,254)" stroke-width="1" opacity="1" d="M 77.5 389 L 78 391 Q 80.7 389.9 80 392.5 L 77 390.5 L 77.5 389 Z " /><path fill="rgb(254,254,254)" stroke="rgb(254,254,254)" stroke-width="1" opacity="1" d="M 41 394 L 43 394.5 L 41.5 397 L 41 394 Z " /><path fill="rgb(254,254,254)" stroke="rgb(254,254,254)" stroke-width="1" opacity="1" d="M 81.5 394 Q 84.1 393.2 83 396.5 L 86 398 L 86 415.5 L 84.5 416 Q 81.8 417.4 83 422 L 80 421.5 L 85 414.5 L 85 400.5 L 81.5 394 Z " /><path fill="rgb(254,254,254)" stroke="rgb(254,254,254)" stroke-width="1" opacity="1" d="M 38 398 L 41 398.5 L 39 400.5 L 39 414.5 L 44 421.5 L 41 422 Q 42.3 417.4 39.5 416 L 38 415.5 L 38 398 Z " /><path fill="rgb(254,254,254)" stroke="rgb(254,254,254)" stroke-width="1" opacity="1" d="M 321.5 420 L 322.5 422 Q 319.7 422.7 321.5 420 Z " /><path fill="rgb(254,254,254)" stroke="rgb(254,254,254)" stroke-width="1" opacity="1" d="M 475.5 420 L 476 422 L 473 423.5 L 472.5 425 L 324 425 L 324.5 422 L 326.5 424 L 470.5 424 L 475.5 420 Z " /><path fill="rgb(254,254,254)" stroke="rgb(254,254,254)" stroke-width="1" opacity="1" d="M 139.5 422 L 141.5 424 L 291.5 424 L 294 422.5 L 292.5 425 L 139.5 425 L 139.5 422 Z " /><path fill="rgb(254,254,254)" stroke="rgb(254,254,254)" stroke-width="1" opacity="1" d="M 44.5 423 L 47 424.5 L 44 425 L 44.5 423 Z " /><path fill="rgb(254,254,254)" stroke="rgb(254,254,254)" stroke-width="1" opacity="1" d="M 79.5 423 L 80 425 L 75.5 428 L 73 428 Q 74.3 431 70.5 430 L 70.5 429 Q 73.1 429.7 72 427 L 75.5 427 L 77 424 L 79.5 423 Z " /><path fill="rgb(254,254,254)" stroke="rgb(254,254,254)" stroke-width="1" opacity="1" d="M 47.5 426 L 52 427 Q 50.9 429.7 53.5 429 L 53.5 430 L 51 430 Q 52.3 427 48.5 428 L 47.5 426 Z " /><path fill="rgb(254,254,254)" stroke="rgb(254,254,254)" stroke-width="1" opacity="1" d="M 65.5 429 L 64.5 431 L 65.5 429 Z " /><path fill="rgb(254,254,254)" stroke="rgb(254,254,254)" stroke-width="1" opacity="1" d="M 59.5 432 L 60 443.5 L 59 443.5 L 59.5 432 Z " /><path fill="rgb(254,254,254)" stroke="rgb(254,254,254)" stroke-width="1" opacity="1" d="M 64.5 432 L 65 443.5 L 64 443.5 L 64.5 432 Z " /><path fill="rgb(254,254,254)" stroke="rgb(254,254,254)" stroke-width="1" opacity="1" d="M 25 446 L 60 446.5 L 27 447 Q 25.3 451.1 29.5 450 L 29.5 451 L 25 451 L 25 446 Z " /><path fill="rgb(254,254,254)" stroke="rgb(254,254,254)" stroke-width="1" opacity="1" d="M 64.5 446 L 98.5 446 L 99 451 L 94 450.5 L 97 450 L 96.5 447 L 64.5 447 L 64.5 446 Z " /><path fill="rgb(254,254,254)" stroke="rgb(254,254,254)" stroke-width="1" opacity="1" d="M 65.5 450 L 67 450.5 L 64.5 452 L 65.5 450 Z " /><path fill="rgb(254,254,254)" stroke="rgb(254,254,254)" stroke-width="1" opacity="1" d="M 59.5 453 L 60 496.5 L 59 496.5 L 59.5 453 Z " /><path fill="rgb(254,254,254)" stroke="rgb(254,254,254)" stroke-width="1" opacity="1" d="M 64.5 453 L 65 496.5 L 64 496.5 L 64.5 453 Z " /><path fill="rgb(254,254,254)" stroke="rgb(254,254,254)" stroke-width="1" opacity="1" d="M 59.5 498 L 55 503.5 L 48.5 513 L 47 512.5 L 49 512 L 49 507 L 50.5 507 L 54 502 L 57 500.5 Q 56.3 498.3 58.5 499 L 59.5 498 Z " /><path fill="rgb(254,254,254)" stroke="rgb(254,254,254)" stroke-width="1" opacity="1" d="M 64.5 498 L 67 499 L 68.5 502 Q 70.8 501.3 70 503.5 L 73 505 Q 74.1 507.7 71.5 507 L 64.5 498 Z " /><path fill="rgb(254,254,254)" stroke="rgb(254,254,254)" stroke-width="1" opacity="1" d="M 65.5 506 L 66 508 L 68 508.5 L 66.5 509 L 65.5 506 Z " /><path fill="rgb(254,254,254)" stroke="rgb(254,254,254)" stroke-width="1" opacity="1" d="M 58.5 507 L 57.5 509 L 56 508.5 L 58.5 507 Z " /><path fill="rgb(254,254,254)" stroke="rgb(254,254,254)" stroke-width="1" opacity="1" d="M 72.5 509 L 75 510 L 74.5 512 L 72.5 509 Z " /><path fill="rgb(254,254,254)" stroke="rgb(254,254,254)" stroke-width="1" opacity="1" d="M 68.5 510 L 73 513.5 L 71 514 Q 72.1 511.3 69.5 512 L 68.5 510 Z " /><path fill="rgb(254,254,254)" stroke="rgb(254,254,254)" stroke-width="1" opacity="1" d="M 53.5 511 L 54 514 L 51 513.5 L 53 513 L 53.5 511 Z " /><path fill="rgb(254,254,254)" stroke="rgb(254,254,254)" stroke-width="1" opacity="1" d="M 76.5 512 L 78 514.5 L 77 514.5 L 76.5 512 Z " /><path fill="rgb(254,254,254)" stroke="rgb(254,254,254)" stroke-width="1" opacity="1" d="M 50.5 515 L 49 517.5 Q 49.8 521.3 47.5 522 L 43 525.5 L 41 528.5 L 35.5 533 L 35 531 L 40 529 L 48 518.5 L 48 516 L 50.5 515 Z " /><path fill="rgb(254,254,254)" stroke="rgb(254,254,254)" stroke-width="1" opacity="1" d="M 73.5 515 L 76 516.5 L 73 517 L 73.5 515 Z " /><path fill="rgb(254,254,254)" stroke="rgb(254,254,254)" stroke-width="1" opacity="1" d="M 42.5 517 L 44 517.5 L 42 518 L 40.5 521 Q 38.3 520.3 39 522.5 L 36.5 526 Q 34.3 525.3 35 527.5 L 34 531 L 31.5 532 L 31 530 L 33 530 L 33 525 L 36 525 L 36 523 Q 38.7 524.1 38 521.5 L 41 520 L 42.5 517 Z " /><path fill="rgb(254,254,254)" stroke="rgb(254,254,254)" stroke-width="1" opacity="1" d="M 80.5 517 L 83 518.5 Q 82.3 520.8 84.5 520 L 84.5 521 L 82 519.5 Q 82.8 517.3 80.5 518 L 80.5 517 Z " /><path fill="rgb(254,254,254)" stroke="rgb(254,254,254)" stroke-width="1" opacity="1" d="M 75 519 L 78 520.5 L 87 531.5 L 86 531.5 L 84 528.5 L 81 527 L 79.5 524 Q 77.3 524.8 78 522.5 L 75 521 L 75 519 Z " /><path fill="rgb(254,254,254)" stroke="rgb(254,254,254)" stroke-width="1" opacity="1" d="M 87.5 523 L 89.5 526 L 91 526 L 91 530 Q 93.7 528.9 93 531.5 L 96.5 536 L 93 533.5 L 87 524.5 L 87.5 523 Z " /><path fill="rgb(254,254,254)" stroke="rgb(254,254,254)" stroke-width="1" opacity="1" d="M 28 533 L 30 533.5 L 28 534.5 L 28 533 Z " /><path fill="rgb(254,254,254)" stroke="rgb(254,254,254)" stroke-width="1" opacity="1" d="M 33.5 534 L 35 534.5 L 33 535 L 33 540 L 31.5 540 L 27.5 541 L 25 540 Q 22.9 534.8 27.5 536 L 27 537.5 Q 26.1 540.5 30.5 539 L 33.5 534 Z " /><path fill="rgb(254,254,254)" stroke="rgb(254,254,254)" stroke-width="1" opacity="1" d="M 89.5 534 L 93 536.5 Q 91.9 539.8 94.5 539 L 96.5 540 L 98.5 536 L 99 539.5 Q 98 542 93.5 541 L 91 540 L 92 536.5 L 89.5 534 Z " /><path fill="rgb(255,255,255)" stroke="rgb(255,255,255)" stroke-width="1" opacity="1" d="M 0 1 L 491 1 L 491 555 L 0 555 L 0 1 Z M 54 13 L 46 18 L 43 22 L 41 22 L 41 27 L 38 27 L 38 46 L 41 46 L 41 51 L 43 51 L 44 54 L 49 57 Q 53 55 52 59 Q 54 62 60 60 L 59 63 L 59 74 L 60 75 L 60 76 L 25 76 L 26 81 L 60 81 L 59 84 L 59 127 L 60 128 L 57 131 Q 54 130 55 133 L 52 134 L 46 142 L 44 142 L 44 147 L 41 147 L 41 150 Q 38 149 39 152 L 36 154 Q 37 157 33 155 L 33 158 Q 30 157 31 160 L 28 160 L 28 165 L 27 165 Q 24 166 25 170 L 30 170 L 30 169 L 35 165 L 37 162 Q 40 163 38 159 L 45 154 L 46 154 L 46 149 L 48 149 L 50 146 L 53 144 L 54 141 L 57 140 Q 56 137 59 138 L 59 136 L 62 135 L 64 136 Q 66 135 65 138 L 68 140 L 70 143 L 73 144 L 75 147 L 80 151 L 83 158 Q 82 160 85 159 L 86 162 L 89 164 Q 88 166 91 165 L 94 170 Q 101 172 99 166 L 96 165 L 96 160 L 93 160 Q 94 157 91 158 L 91 155 L 88 155 L 82 147 Q 79 148 80 145 L 78 145 L 78 140 L 77 140 L 75 137 L 72 136 Q 73 133 70 134 L 69 131 L 66 129 Q 63 128 65 127 L 65 84 L 64 83 L 65 81 L 99 81 L 99 76 L 64 76 L 65 74 L 65 63 L 64 62 L 65 60 L 72 60 L 72 57 Q 76 58 79 55 L 82 51 L 83 51 L 83 46 L 86 46 L 86 28 L 83 27 L 83 22 L 82 22 L 79 18 Q 76 19 77 16 Q 73 17 72 15 L 72 13 L 54 13 Z M 142 128 L 142 131 L 136 131 L 136 137 L 133 138 L 133 206 L 136 208 L 136 212 L 139 212 L 140 215 L 213 215 L 213 216 L 213 231 Q 218 232 220 230 L 220 217 L 219 216 L 219 215 L 294 215 L 294 212 L 297 211 Q 296 207 300 209 L 300 138 L 297 137 L 297 131 L 291 131 L 291 128 L 142 128 Z M 327 128 L 326 131 L 321 131 L 321 137 L 318 138 L 318 206 L 321 208 L 321 212 L 324 212 L 325 215 L 395 215 L 395 216 L 395 230 Q 397 232 402 231 Q 404 227 403 218 L 401 216 L 401 215 L 474 215 L 474 212 Q 477 213 476 211 L 479 209 L 479 138 L 478 137 Q 475 136 476 131 Q 471 132 470 130 L 470 128 L 327 128 Z M 15 178 L 15 206 L 17 206 L 18 210 Q 24 209 26 212 Q 31 213 30 210 L 35 210 Q 34 206 38 207 L 39 191 L 41 189 L 41 182 L 39 181 L 39 180 Q 38 177 33 178 L 30 182 L 30 200 L 31 202 L 22 202 L 22 180 Q 20 176 15 178 Z M 83 184 L 81 186 L 83 186 L 83 184 Z M 43 186 Q 44 190 41 189 L 41 198 L 43 198 Q 44 201 41 200 L 41 209 L 43 210 Q 48 208 47 212 Q 53 214 53 210 L 59 210 L 59 204 L 61 203 L 62 209 Q 63 211 68 210 L 70 212 L 79 210 L 82 200 L 80 191 Q 81 188 79 189 L 77 186 L 66 186 L 65 188 L 62 189 L 60 195 L 59 195 L 59 190 Q 56 190 57 186 L 43 186 Z M 83 186 L 83 210 L 91 210 L 91 195 L 96 194 L 96 186 L 83 186 Z M 82 210 L 83 212 Q 84 209 82 210 Z M 59 212 L 57 214 L 57 230 Q 59 232 64 231 L 65 229 L 65 217 L 61 214 Q 62 211 59 212 Z M 57 239 L 57 257 L 64 257 L 65 256 L 65 241 Q 63 237 57 239 Z M 213 239 L 213 257 L 220 257 L 220 239 L 213 239 Z M 395 239 L 395 257 L 402 257 L 403 254 L 403 242 L 402 241 L 402 239 L 395 239 Z M 57 265 L 57 283 L 64 283 L 65 282 L 65 267 Q 63 263 57 265 Z M 81 265 L 81 286 L 88 286 L 88 274 L 90 272 L 91 273 L 91 286 L 99 286 L 99 272 L 102 273 L 102 286 L 109 286 L 110 285 L 110 270 L 109 268 L 107 268 L 107 265 L 81 265 Z M 115 265 L 112 268 L 112 285 Q 113 287 118 286 L 120 288 L 122 288 L 123 286 L 128 286 Q 127 282 131 283 L 132 279 Q 134 280 133 285 L 131 286 Q 134 286 133 291 L 138 293 L 138 294 L 65 294 L 63 293 L 63 291 L 57 291 L 57 309 L 64 309 Q 66 308 65 304 Q 63 302 66 301 L 68 302 L 171 302 L 173 301 L 170 305 L 168 305 L 168 309 L 180 309 Q 179 306 185 307 L 187 304 Q 193 305 193 303 L 196 301 Q 197 303 198 301 Q 197 298 200 299 L 199 302 L 199 325 L 213 325 L 213 333 L 216 333 L 216 336 L 220 336 L 220 325 L 234 325 L 234 294 L 221 294 L 219 293 L 219 292 L 214 291 L 213 294 L 197 294 L 195 293 L 195 291 L 190 291 L 190 289 Q 184 291 182 288 L 182 286 L 177 286 L 177 283 Q 172 281 170 285 Q 168 290 172 292 Q 174 291 173 294 L 145 294 L 151 290 L 152 290 L 152 265 L 137 265 Q 137 268 133 267 Q 134 271 131 273 L 131 278 L 130 278 Q 131 275 128 276 L 131 269 L 128 268 L 128 265 L 115 265 Z M 213 265 L 213 283 L 220 283 L 220 265 L 213 265 Z M 395 265 L 395 283 L 402 283 L 403 280 L 403 269 L 402 268 L 402 265 L 395 265 Z M 89 286 Q 88 289 91 288 Q 92 285 89 286 Z M 99 286 Q 98 289 101 288 Q 102 285 99 286 Z M 110 286 L 110 288 L 112 287 L 110 286 Z M 395 291 L 395 309 L 402 309 L 403 307 L 403 295 L 402 294 L 402 291 L 395 291 Z M 60 317 L 57 318 L 57 333 Q 62 332 60 336 L 64 336 L 65 334 L 65 320 Q 64 316 60 317 Z M 398 317 L 395 318 L 395 333 Q 400 332 398 336 L 402 336 L 403 333 L 403 321 L 402 319 Q 401 316 398 317 Z M 141 338 L 139 340 Q 140 343 136 341 L 136 347 L 133 348 L 133 416 L 136 418 L 136 422 Q 141 421 139 425 L 293 425 L 294 424 Q 293 421 297 422 L 297 417 L 300 416 L 300 348 L 297 347 L 297 341 Q 293 342 294 340 L 293 338 L 141 338 Z M 326 338 L 324 340 Q 325 343 321 341 Q 322 346 320 347 L 318 348 L 318 416 L 321 418 L 321 422 L 324 422 L 325 425 L 473 425 L 475 422 L 476 422 L 476 417 L 479 417 L 479 347 L 476 346 L 476 341 L 473 341 L 473 338 L 326 338 Z M 15 346 L 15 374 L 17 374 L 18 378 Q 24 377 26 380 Q 31 381 30 378 L 35 378 Q 34 374 38 375 L 39 359 L 41 357 L 41 350 L 39 349 L 39 348 Q 38 345 33 346 L 30 350 L 30 368 L 31 370 L 22 370 L 22 348 Q 20 345 15 346 Z M 83 352 L 81 354 L 83 354 L 83 352 Z M 43 354 Q 44 358 41 357 L 41 366 L 43 366 Q 44 369 41 368 L 41 377 L 43 378 Q 48 376 47 380 Q 53 382 53 378 L 59 378 L 59 372 L 61 371 L 62 377 Q 63 379 68 378 L 70 380 L 79 378 L 82 368 L 80 359 Q 81 356 79 357 L 77 354 L 66 354 L 65 357 L 62 357 L 60 363 L 59 363 L 59 358 Q 56 358 57 354 L 43 354 Z M 83 354 L 83 378 L 91 378 L 91 363 L 96 362 L 96 354 L 83 354 Z M 82 378 L 83 380 Q 84 377 82 378 Z M 55 383 L 54 386 Q 48 384 49 388 L 46 389 Q 47 392 44 391 L 44 394 L 41 394 L 41 398 L 38 399 L 38 416 L 41 418 L 41 422 Q 46 421 44 425 L 47 425 L 49 428 L 51 428 L 52 430 L 60 430 L 59 433 L 59 444 L 60 445 L 60 446 L 25 446 L 26 451 L 60 451 L 59 454 L 59 497 Q 61 498 59 499 Q 56 498 57 501 L 54 502 L 51 507 L 49 507 L 49 512 L 47 512 L 46 515 L 43 517 L 41 520 L 38 522 Q 39 524 36 523 L 36 525 L 33 525 L 33 530 Q 30 529 31 533 Q 27 532 28 536 L 25 536 L 25 540 L 28 541 L 32 540 L 33 540 L 33 535 Q 36 536 35 534 L 41 529 L 43 526 L 48 522 L 51 516 Q 50 513 54 514 L 54 511 Q 57 512 56 509 L 59 508 Q 58 505 61 506 L 61 504 L 63 504 L 63 506 Q 66 505 65 508 L 68 509 L 70 512 Q 72 511 71 514 L 73 514 L 73 517 L 76 517 L 75 521 L 78 523 Q 77 525 80 524 L 81 527 L 84 529 Q 83 531 86 530 L 86 532 L 88 532 L 89 535 L 92 537 L 91 540 L 98 541 Q 100 540 99 536 L 93 532 Q 94 529 91 530 L 91 526 L 90 526 L 88 523 L 85 522 Q 86 519 83 520 L 82 517 Q 79 518 80 515 L 78 515 L 77 512 Q 74 513 75 510 L 72 509 L 73 507 Q 74 504 72 505 L 70 502 L 67 501 Q 68 498 66 499 Q 63 498 65 497 L 65 454 L 64 453 L 66 451 L 99 451 L 99 446 L 64 446 Q 66 442 65 433 Q 63 431 66 430 L 73 430 L 73 428 Q 77 429 79 425 Q 81 426 80 422 L 83 422 Q 82 417 85 416 L 86 416 L 86 398 L 83 397 L 83 394 L 80 394 L 80 391 L 78 391 Q 79 388 77 389 L 75 386 Q 70 387 69 385 L 69 383 L 55 383 Z " /><path fill="rgb(255,255,255)" stroke="rgb(255,255,255)" stroke-width="1" opacity="1" d="M 61.5 131 L 62.5 133 Q 59.7 133.7 61.5 131 Z " /><path fill="rgb(255,255,255)" stroke="rgb(255,255,255)" stroke-width="1" opacity="1" d="M 57.5 196 Q 59.8 195.3 59 197.5 L 57.5 196 Z " /><path fill="rgb(255,255,255)" stroke="rgb(255,255,255)" stroke-width="1" opacity="1" d="M 48.5 202 Q 53.3 200.7 52 204 Q 48.2 204.8 48.5 202 Z " /><path fill="rgb(255,255,255)" stroke="rgb(255,255,255)" stroke-width="1" opacity="1" d="M 69.5 202 L 73 202.5 L 69.5 203 L 69.5 202 Z " /><path fill="rgb(255,255,255)" stroke="rgb(255,255,255)" stroke-width="1" opacity="1" d="M 142.5 272 L 144 272.5 L 144 279 L 141.5 280 L 141 278 L 139 278 L 139 273 L 142.5 272 Z " /><path fill="rgb(255,255,255)" stroke="rgb(255,255,255)" stroke-width="1" opacity="1" d="M 118.5 278 L 122 279 Q 123.1 281.7 120.5 281 L 118.5 278 Z " /><path fill="rgb(255,255,255)" stroke="rgb(255,255,255)" stroke-width="1" opacity="1" d="M 141.5 286 L 144 286.5 L 141.5 287 L 141.5 286 Z " /><path fill="rgb(255,255,255)" stroke="rgb(255,255,255)" stroke-width="1" opacity="1" d="M 207 301 L 209.5 302 L 222.5 302 L 226 301 L 226 316.5 L 224.5 318 L 223.5 317 L 209.5 317 L 207 318 L 207 301 Z " /><path fill="rgb(255,255,255)" stroke="rgb(255,255,255)" stroke-width="1" opacity="1" d="M 57.5 364 Q 59.8 363.3 59 365.5 L 57.5 364 Z " /><path fill="rgb(255,255,255)" stroke="rgb(255,255,255)" stroke-width="1" opacity="1" d="M 48.5 370 Q 53.3 368.7 52 372 Q 48.2 372.8 48.5 370 Z " /><path fill="rgb(255,255,255)" stroke="rgb(255,255,255)" stroke-width="1" opacity="1" d="M 69.5 370 L 73 370.5 L 70.5 372 L 69.5 370 Z " /></svg>